<svg width="22" height="21" viewBox="0 0 22 21" fill="none" xmlns="http://www.w3.org/2000/svg">
<path fill-rule="evenodd" clip-rule="evenodd" d="M20.477 10.6694C20.477 9.96039 20.4133 9.27857 20.2952 8.62402H10.877V12.4922H16.2588C16.027 13.7422 15.3224 14.8013 14.2634 15.5104V18.0194H17.4952C19.3861 16.2785 20.477 13.7149 20.477 10.6694Z" fill="#4285F4"/>
<path fill-rule="evenodd" clip-rule="evenodd" d="M10.868 20.4398C13.568 20.4398 15.8316 19.5444 17.4861 18.0171L14.2544 15.508C13.3589 16.108 12.2135 16.4625 10.868 16.4625C8.26345 16.4625 6.0589 14.7034 5.27254 12.3398H1.93164V14.9307C3.57709 18.1989 6.9589 20.4398 10.868 20.4398Z" fill="#34A853"/>
<path fill-rule="evenodd" clip-rule="evenodd" d="M5.28149 12.3391C5.08149 11.7391 4.96785 11.0982 4.96785 10.4392C4.96785 9.78006 5.08149 9.13915 5.28149 8.53915V5.94824H1.94058C1.26332 7.29824 0.876953 8.82551 0.876953 10.4392C0.876953 12.0528 1.26332 13.58 1.94058 14.93L5.28149 12.3391Z" fill="#FBBC05"/>
<path fill-rule="evenodd" clip-rule="evenodd" d="M10.868 4.4177C12.3362 4.4177 13.6544 4.92225 14.6908 5.91316L17.5589 3.04497C15.8271 1.43134 13.5635 0.44043 10.868 0.44043C6.9589 0.44043 3.57709 2.68134 1.93164 5.94952L5.27254 8.54043C6.0589 6.17679 8.26345 4.4177 10.868 4.4177Z" fill="#EA4335"/>
</svg>
