<svg width="322" height="76" viewBox="0 0 322 76" fill="none" xmlns="http://www.w3.org/2000/svg">
<path d="M10.2936 60H4.75088V19.1085H10.2936L31.2201 50.7245V19.1085H36.7628V60H31.2201L10.2936 28.384V60ZM43.571 46.1433C43.571 37.603 49.6793 31.6078 57.9933 31.6078C66.2508 31.6078 72.3591 37.603 72.3591 46.1433C72.3591 54.6835 66.2508 60.6787 57.9933 60.6787C49.6793 60.6787 43.571 54.6835 43.571 46.1433ZM48.944 46.1433C48.944 51.9122 52.6203 55.9278 57.9933 55.9278C63.3098 55.9278 67.0426 51.9122 67.0426 46.1433C67.0426 40.3743 63.3098 36.3587 57.9933 36.3587C52.6203 36.3587 48.944 40.3743 48.944 46.1433ZM84.7223 60L73.5804 32.3431H79.2362L85.2879 47.7834C86.2494 50.3851 87.0412 52.704 87.4937 54.4007C87.9461 52.5909 88.8511 50.2154 89.8126 47.7834L95.9774 32.3431H101.52L89.9822 60H84.7223ZM112.567 60.6787C106.629 60.6787 103.122 57.3418 103.122 52.3081C103.122 47.2179 106.912 44.0506 113.416 43.5416L122.126 42.8629V42.0711C122.126 37.4333 119.354 35.7931 115.622 35.7931C111.154 35.7931 108.608 37.7727 108.608 41.1096H103.971C103.971 35.3406 108.722 31.5513 115.848 31.5513C122.691 31.5513 127.329 35.171 127.329 42.6367V60H122.805L122.239 55.5319C120.825 58.6992 117.036 60.6787 112.567 60.6787ZM114.095 56.55C119.128 56.55 122.182 53.2696 122.182 48.0662V46.5957L115.113 47.1613C110.418 47.6138 108.495 49.4236 108.495 52.1384C108.495 55.0794 110.645 56.55 114.095 56.55ZM157.202 42.6367H141.14V60H135.597V19.1085H160.256V24.1987H141.14V37.603H157.202V42.6367ZM171.494 60H166.177V18.3732H171.494V60ZM198.436 32.3431H203.696V60H198.945L198.38 55.8147C196.796 58.6992 193.12 60.6787 189.048 60.6787C182.6 60.6787 178.98 56.3237 178.98 49.5367V32.3431H184.297V47.7834C184.297 53.722 186.842 55.9844 190.914 55.9844C195.778 55.9844 198.436 52.8737 198.436 46.9351V32.3431ZM214.238 60H208.13L217.801 46.3129L208.186 32.3431H214.351L221.364 42.6367L228.208 32.3431H234.259L224.645 46.3129L234.09 60H227.925L221.025 49.8761L214.238 60Z" fill="#020202"/>
<circle cx="280.141" cy="38" r="38" fill="#9A22C2"/>
<path d="M321.283 38C321.283 58.9868 304.269 76 283.283 76C262.296 76 283.283 58.9868 283.283 38C283.283 17.0132 262.296 0 283.283 0C304.269 0 321.283 17.0132 321.283 38Z" fill="url(#paint0_linear_132_3114)"/>
<defs>
<linearGradient id="paint0_linear_132_3114" x1="297.619" y1="0" x2="297.619" y2="76" gradientUnits="userSpaceOnUse">
<stop stop-color="#EDB6FF"/>
<stop offset="1" stop-color="#F8E2FF"/>
</linearGradient>
</defs>
</svg>
