<svg width="183" height="44" viewBox="0 0 183 44" fill="none" xmlns="http://www.w3.org/2000/svg">
<path d="M55.324 34.5H52.188V11.364H55.324L67.164 29.252V11.364H70.3V34.5H67.164L55.324 16.612V34.5ZM74.152 26.66C74.152 21.828 77.608 18.436 82.312 18.436C86.984 18.436 90.44 21.828 90.44 26.66C90.44 31.492 86.984 34.884 82.312 34.884C77.608 34.884 74.152 31.492 74.152 26.66ZM77.192 26.66C77.192 29.924 79.272 32.196 82.312 32.196C85.32 32.196 87.432 29.924 87.432 26.66C87.432 23.396 85.32 21.124 82.312 21.124C79.272 21.124 77.192 23.396 77.192 26.66ZM97.435 34.5L91.131 18.852H94.331L97.755 27.588C98.299 29.06 98.747 30.372 99.003 31.332C99.259 30.308 99.771 28.964 100.315 27.588L103.803 18.852H106.939L100.411 34.5H97.435ZM113.19 34.884C109.83 34.884 107.846 32.996 107.846 30.148C107.846 27.268 109.99 25.476 113.67 25.188L118.598 24.804V24.356C118.598 21.732 117.03 20.804 114.918 20.804C112.39 20.804 110.95 21.924 110.95 23.812H108.326C108.326 20.548 111.014 18.404 115.046 18.404C118.918 18.404 121.542 20.452 121.542 24.676V34.5H118.982L118.662 31.972C117.862 33.764 115.718 34.884 113.19 34.884ZM114.054 32.548C116.902 32.548 118.63 30.692 118.63 27.748V26.916L114.63 27.236C111.974 27.492 110.886 28.516 110.886 30.052C110.886 31.716 112.102 32.548 114.054 32.548ZM138.443 24.676H129.355V34.5H126.219V11.364H140.171V14.244H129.355V21.828H138.443V24.676ZM146.529 34.5H143.521V10.948H146.529V34.5ZM161.773 18.852H164.749V34.5H162.061L161.741 32.132C160.845 33.764 158.765 34.884 156.461 34.884C152.813 34.884 150.765 32.42 150.765 28.58V18.852H153.773V27.588C153.773 30.948 155.213 32.228 157.517 32.228C160.269 32.228 161.773 30.468 161.773 27.108V18.852ZM170.714 34.5H167.258L172.73 26.756L167.29 18.852H170.778L174.746 24.676L178.618 18.852H182.042L176.602 26.756L181.946 34.5H178.458L174.554 28.772L170.714 34.5Z" fill="#020202"/>
<circle cx="22" cy="22" r="21.5" fill="#9A22C2"/>
<path d="M49.2774 22C49.2774 33.8741 39.6515 43.5 27.7774 43.5C15.9033 43.5 27.7774 33.8741 27.7774 22C27.7774 10.1259 15.9033 0.5 27.7774 0.5C39.6515 0.5 49.2774 10.1259 49.2774 22Z" fill="url(#paint0_linear_132_4211)"/>
<defs>
<linearGradient id="paint0_linear_132_4211" x1="35.8887" y1="0.5" x2="35.8887" y2="43.5" gradientUnits="userSpaceOnUse">
<stop stop-color="#EDB6FF"/>
<stop offset="1" stop-color="#F8E2FF"/>
</linearGradient>
</defs>
</svg>
