<svg width="450" height="20" viewBox="0 0 450 20" fill="none" xmlns="http://www.w3.org/2000/svg">
<mask id="path-1-inside-1_160_4625" fill="white">
<path d="M0 9.09961H450V10.0996H0V9.09961Z"/>
</mask>
<path d="M0 10.0996H450V8.09961H0V10.0996Z" fill="#B7C9CC" mask="url(#path-1-inside-1_160_4625)"/>
<rect width="74.61" height="19.19" transform="translate(187.689)" fill="white"/>
<path d="M219.412 14.4704C218.668 13.7264 218.296 12.7706 218.296 11.6029C218.296 10.4352 218.668 9.47939 219.412 8.73539C220.156 7.99139 221.102 7.61939 222.249 7.61939C223.385 7.61939 224.326 7.99139 225.07 8.73539C225.814 9.47939 226.186 10.4352 226.186 11.6029C226.186 12.7706 225.814 13.7264 225.07 14.4704C224.326 15.2144 223.385 15.5864 222.249 15.5864C221.102 15.5864 220.156 15.2144 219.412 14.4704ZM220.451 9.66539C219.996 10.1614 219.769 10.8072 219.769 11.6029C219.769 12.3986 219.996 13.0444 220.451 13.5404C220.916 14.0364 221.515 14.2844 222.249 14.2844C222.982 14.2844 223.576 14.0364 224.031 13.5404C224.496 13.0341 224.729 12.3882 224.729 11.6029C224.729 10.8176 224.496 10.1769 224.031 9.68089C223.576 9.17456 222.982 8.92139 222.249 8.92139C221.515 8.92139 220.916 9.16939 220.451 9.66539ZM232.138 7.75889V9.09189H231.487C230.795 9.09189 230.247 9.29339 229.844 9.69639C229.452 10.0994 229.255 10.6626 229.255 11.3859V15.4004H227.798V7.83639H229.162L229.255 8.98339C229.41 8.58039 229.674 8.26006 230.046 8.02239C230.418 7.78472 230.857 7.66589 231.363 7.66589C231.591 7.66589 231.849 7.69689 232.138 7.75889Z" fill="#B7C9CC"/>
</svg>
