<svg width="797" height="594" viewBox="0 0 797 594" fill="none" xmlns="http://www.w3.org/2000/svg">
<path d="M796 493.789H42V494.166H796V493.789Z" fill="#EBEBEB"/>
<path d="M720.45 518.062H687.758V518.439H720.45V518.062Z" fill="#EBEBEB"/>
<path d="M561.759 510.238H510.322V510.615H561.759V510.238Z" fill="#EBEBEB"/>
<path d="M707.194 504.058H640.051V504.435H707.194V504.058Z" fill="#EBEBEB"/>
<path d="M302.907 511.662H286.111V512.039H302.907V511.662Z" fill="#EBEBEB"/>
<path d="M272.686 511.662H214.795V512.039H272.686V511.662Z" fill="#EBEBEB"/>
<path d="M183.754 505.295H141.99V505.672H183.754V505.295Z" fill="#EBEBEB"/>
<path d="M399.416 426.535H108.223C103.477 426.535 99.6152 422.673 99.6152 417.927V8.60766C99.6152 3.86199 103.477 0 108.223 0H399.416C404.16 0 408.022 3.86199 408.022 8.60766V417.927C408.022 422.673 404.16 426.535 399.416 426.535ZM108.223 0.378507C103.684 0.378507 99.9922 4.07009 99.9922 8.60917V417.929C99.9922 422.468 103.684 426.159 108.223 426.159H399.416C403.954 426.159 407.645 422.468 407.645 417.929V8.60766C407.645 4.07009 403.954 0.377 399.416 0.377L108.223 0.378507Z" fill="#EBEBEB"/>
<path d="M725.591 426.535H434.399C429.653 426.535 425.793 422.673 425.793 417.927V8.60766C425.793 3.86199 429.655 0 434.399 0H725.591C730.338 0 734.199 3.86199 734.199 8.60766V417.927C734.2 422.673 730.338 426.535 725.591 426.535ZM434.399 0.378507C429.862 0.378507 426.17 4.07009 426.17 8.60917V417.929C426.17 422.468 429.862 426.159 434.399 426.159H725.591C730.13 426.159 733.822 422.468 733.822 417.929V8.60766C733.822 4.07009 730.13 0.377 725.591 0.377L434.399 0.378507Z" fill="#EBEBEB"/>
<path d="M215.388 180.471C232.803 180.471 246.921 166.353 246.921 148.937C246.921 131.521 232.803 117.403 215.388 117.403H211.52V180.469L215.388 180.471Z" fill="#E0E0E0"/>
<path d="M211.52 180.471C228.936 180.471 243.054 166.353 243.054 148.937C243.054 131.521 228.936 117.403 211.52 117.403C194.104 117.403 179.986 131.521 179.986 148.937C179.986 166.353 194.104 180.471 211.52 180.471Z" fill="#F5F5F5"/>
<path d="M210.076 152.9C186.801 152.9 167.865 133.964 167.865 110.69V85.4699C167.865 83.2802 169.64 81.5068 171.828 81.5068C174.016 81.5068 175.791 83.2817 175.791 85.4699V110.69C175.791 129.594 191.171 144.973 210.074 144.973C212.262 144.973 214.037 146.747 214.037 148.936C214.037 151.124 212.264 152.9 210.076 152.9Z" fill="#E0E0E0"/>
<path d="M136.751 107.673H206.905C211.713 107.673 215.217 103.121 213.987 98.4731L207.902 75.4987C207.051 72.2867 204.144 70.0488 200.822 70.0488H142.838C139.514 70.0488 136.608 72.2852 135.758 75.4987L129.673 98.4731C128.439 103.119 131.944 107.673 136.751 107.673Z" fill="#F5F5F5"/>
<path d="M660.7 180.471C678.116 180.471 692.234 166.353 692.234 148.937C692.234 131.521 678.116 117.403 660.7 117.403H656.832V180.469L660.7 180.471Z" fill="#E0E0E0"/>
<path d="M656.831 180.471C674.246 180.471 688.364 166.353 688.364 148.937C688.364 131.521 674.246 117.403 656.831 117.403C639.415 117.403 625.297 131.521 625.297 148.937C625.297 166.353 639.415 180.471 656.831 180.471Z" fill="#F5F5F5"/>
<path d="M655.386 152.9C632.112 152.9 613.176 133.964 613.176 110.69V85.4699C613.176 83.2802 614.951 81.5068 617.139 81.5068C619.328 81.5068 621.102 83.2817 621.102 85.4699V110.69C621.102 129.594 636.482 144.973 655.385 144.973C657.574 144.973 659.348 146.747 659.348 148.936C659.348 151.124 657.574 152.9 655.386 152.9Z" fill="#E0E0E0"/>
<path d="M582.063 107.673H652.217C657.024 107.673 660.529 103.121 659.297 98.4731L653.212 75.4987C652.361 72.2867 649.454 70.0488 646.132 70.0488H588.148C584.824 70.0488 581.918 72.2852 581.068 75.4987L574.983 98.4731C573.751 103.119 577.255 107.673 582.063 107.673Z" fill="#F5F5F5"/>
<path d="M244.044 393.439H266.977V304.573H244.044V393.439Z" fill="#E6E6E6"/>
<path d="M181.869 393.439H257.978L269.472 289.428H193.363L181.869 393.439Z" fill="#F0F0F0"/>
<path d="M173.627 393.439H252.24L263.734 289.428H185.121L173.627 393.439Z" fill="#F5F5F5"/>
<path d="M246.562 385.243L256.243 297.625H190.8L181.119 385.243H246.562Z" fill="white"/>
<path d="M233.046 364.006L233.441 360.435C235.87 338.453 222.146 318.862 204.317 318.862L203.922 322.433C201.493 344.414 215.218 364.006 233.046 364.006Z" fill="#F5F5F5"/>
<path d="M131.1 493.79H198.717V393.44H131.1V493.79Z" fill="#E6E6E6"/>
<path d="M137.901 493.789H131.1V474.442H145.032L137.901 493.789Z" fill="#F0F0F0"/>
<path d="M320.609 493.79H388.227V393.44H320.609V493.79Z" fill="#E6E6E6"/>
<path d="M131.099 481.918H326.545V393.439H131.099V481.918Z" fill="#F0F0F0"/>
<path d="M319.745 493.789H326.546V474.442H312.613L319.745 493.789Z" fill="#F0F0F0"/>
<path d="M136.377 434.676H321.27V398.974H136.377V434.676Z" fill="#E6E6E6"/>
<path d="M216.492 422.249H241.152C251.864 422.249 262.105 417.845 269.471 410.069H188.172C195.54 417.845 205.781 422.249 216.492 422.249Z" fill="#F0F0F0"/>
<path d="M136.377 476.147H321.27V440.446H136.377V476.147Z" fill="#E6E6E6"/>
<path d="M216.492 463.721H241.152C251.864 463.721 262.105 459.316 269.471 451.541H188.172C195.54 459.316 205.781 463.721 216.492 463.721Z" fill="#F0F0F0"/>
<path d="M314.164 389.347H315.911C315.893 385.749 315.92 376.621 316.095 355.701C316.408 317.783 317.012 315.472 317.012 315.472L312.853 332.977C310.215 352.36 313.614 371.838 314.164 389.347Z" fill="#E6E6E6"/>
<path d="M310.711 330.368C304.725 323.234 291.935 321.158 278.84 319.381C273.699 318.684 292.35 330.432 301.466 338.777C308.547 345.258 313.076 347.05 315.02 353.51C316.033 345.453 315.869 336.515 310.711 330.368Z" fill="#E6E6E6"/>
<path d="M318.652 343.12C324.638 335.986 337.428 333.908 350.524 332.133C355.665 331.436 337.014 343.184 327.898 351.529C320.816 358.01 316.288 359.802 314.344 366.262C313.329 358.206 313.493 349.269 318.652 343.12Z" fill="#E6E6E6"/>
<path d="M316.09 313.794C320.577 305.267 331.872 297.238 344.546 294.192C349.521 292.996 333.02 309.938 326.748 320.864C321.876 329.351 315.414 339.32 314.41 346.482C312.894 332.294 311.602 322.322 316.09 313.794Z" fill="#E6E6E6"/>
<path d="M315.558 393.439C310.211 393.439 305.793 390.759 305.485 387.33L304.594 381.472H326.522L325.63 387.33C325.324 390.759 320.906 393.439 315.558 393.439Z" fill="#F0F0F0"/>
<path d="M327.943 383.726H303.175L302.465 377.198H328.651L327.943 383.726Z" fill="#F0F0F0"/>
<path d="M297.667 259.032L539.258 259.032V38.6652L297.667 38.6652V259.032Z" fill="#E6E6E6"/>
<path d="M292.231 259.032L536.896 259.032V38.6652L292.231 38.6652V259.032Z" fill="#F5F5F5"/>
<path d="M527.135 249.159V48.5361L301.989 48.5361V249.159L527.135 249.159Z" fill="#FAFAFA"/>
<path d="M499.51 249.16L410.897 48.5371H380.799L469.412 249.16H499.51Z" fill="white"/>
<path d="M460.879 249.16L372.265 48.5371H351.541L440.153 249.16H460.879Z" fill="white"/>
<path d="M385.59 249.161L385.59 48.5371H373.947L373.947 249.161H385.59Z" fill="#E6E6E6"/>
<path d="M462.979 249.16L462.979 48.5361H451.335L451.335 249.16H462.979Z" fill="#E6E6E6"/>
<path d="M383.488 255.424L383.488 41.1973H368.772L368.772 255.424H383.488Z" fill="#F5F5F5"/>
<path d="M460.879 255.423L460.879 41.1963H446.162L446.162 255.423H460.879Z" fill="#F5F5F5"/>
<path d="M303.025 249.159L303.025 48.5361H301.989L301.989 249.159H303.025Z" fill="#E6E6E6"/>
<path d="M288.132 25.9697H549.868C550.56 25.9697 551.127 26.5367 551.127 27.2289C551.127 27.9211 550.56 28.4881 549.868 28.4881H288.132C287.44 28.4881 286.873 27.9211 286.873 27.2289C286.875 26.5352 287.44 25.9697 288.132 25.9697Z" fill="#E6E6E6"/>
<path d="M539.258 34.2759C540.193 34.2759 540.958 33.5114 540.958 32.5764V28.9271C540.958 27.9921 540.193 27.2275 539.258 27.2275C538.323 27.2275 537.559 27.9921 537.559 28.9271V32.5764C537.559 33.5114 538.323 34.2759 539.258 34.2759Z" fill="#E6E6E6"/>
<path d="M307.114 34.2759C308.049 34.2759 308.813 33.5114 308.813 32.5764V28.9271C308.813 27.9921 308.049 27.2275 307.114 27.2275C306.179 27.2275 305.414 27.9921 305.414 28.9271V32.5764C305.416 33.5114 306.18 34.2759 307.114 34.2759Z" fill="#E6E6E6"/>
<path opacity="0.6" d="M288.535 199.8L533.021 199.8V27.2288L288.535 27.2288V199.8Z" fill="#E0E0E0"/>
<path d="M555.151 344.91H513.001C508.518 344.91 504.885 341.276 504.885 336.794V317.285C504.885 312.802 508.519 309.169 513.001 309.169H555.151C559.634 309.169 563.267 312.803 563.267 317.285V336.794C563.267 341.276 559.633 344.91 555.151 344.91Z" fill="#FAFAFA"/>
<path d="M560.542 310.22H507.61C506.105 310.22 504.885 309 504.885 307.495V305.29C504.885 303.785 506.105 302.565 507.61 302.565H560.542C562.047 302.565 563.267 303.785 563.267 305.29V307.495C563.267 309 562.047 310.22 560.542 310.22Z" fill="#E6E6E6"/>
<path d="M505.744 384.545C505.744 384.545 506.509 409.673 535.794 409.673C565.079 409.673 565.844 384.545 565.844 384.545H505.744Z" fill="#F0F0F0"/>
<path d="M572.521 384.545C572.521 384.545 573.286 409.673 602.571 409.673C631.857 409.673 632.621 384.545 632.621 384.545H572.521Z" fill="#F0F0F0"/>
<path d="M618.128 344.91H560.204C554.044 344.91 549.051 339.917 549.051 333.755V304.134C549.051 297.973 554.044 292.98 560.204 292.98H618.128C624.288 292.98 629.281 297.975 629.281 304.134V333.755C629.281 339.915 624.288 344.91 618.128 344.91Z" fill="#F0F0F0"/>
<path d="M625.537 294.426H552.795C550.728 294.426 549.051 292.749 549.051 290.681V287.652C549.051 285.584 550.728 283.907 552.795 283.907H625.537C627.604 283.907 629.281 285.584 629.281 287.652V290.681C629.281 292.75 627.606 294.426 625.537 294.426Z" fill="#F5F5F5"/>
<path d="M483.688 493.789H491.285V369.163H483.688V493.789Z" fill="#E6E6E6"/>
<path d="M703.134 344.91H661.98V369.163H703.134V344.91Z" fill="#E6E6E6"/>
<path d="M457.374 369.163H661.98V344.91H457.374V369.163Z" fill="#F5F5F5"/>
<path d="M703.134 409.673H661.98V433.926H703.134V409.673Z" fill="#E6E6E6"/>
<path d="M457.374 433.927H661.98V409.674H457.374V433.927Z" fill="#F5F5F5"/>
<path d="M688.295 493.789H695.893V369.163H688.295V493.789Z" fill="#E6E6E6"/>
<path d="M654.383 493.789H661.98V369.163H654.383V493.789Z" fill="#F5F5F5"/>
<path d="M457.373 493.789H464.971V369.163H457.373V493.789Z" fill="#F5F5F5"/>
<path d="M422.629 575.639C628.978 575.639 796.257 565.87 796.257 553.82C796.257 541.769 628.978 532 422.629 532C216.279 532 49 541.769 49 553.82C49 565.87 216.279 575.639 422.629 575.639Z" fill="#F5F5F5"/>
<path d="M370.556 451.445L254.494 450.908C240.535 450.844 229.269 439.479 229.328 425.519L230.559 134.55C230.618 120.583 241.991 109.31 255.957 109.375L372.018 109.911C385.978 109.976 397.242 121.342 397.183 135.299L395.952 426.269C395.895 440.236 384.523 451.51 370.556 451.445Z" fill="#455A64"/>
<path d="M371.851 119.952L349.349 119.848C346.331 119.835 343.874 122.382 343.861 125.535L343.842 129.617C343.83 132.772 341.372 135.318 338.354 135.304L294.492 135.102C291.475 135.088 289.039 132.519 289.052 129.364L289.069 125.282C289.082 122.127 286.647 119.558 283.629 119.544L275.714 119.507L256.02 119.416C246.239 119.371 238.274 127.266 238.232 137.047L237.031 421.054C236.99 430.831 244.88 438.791 254.655 438.836L370.486 439.371C380.267 439.416 388.231 431.521 388.274 421.74L389.474 137.732C389.516 127.957 381.627 119.998 371.851 119.952Z" fill="white"/>
<path d="M356.266 401.487L270.134 401.089C269.243 401.085 268.524 400.114 268.529 398.921L268.625 376.388C268.629 375.194 269.357 374.231 270.248 374.234L356.38 374.633C357.272 374.638 357.992 375.608 357.986 376.801L357.891 399.334C357.886 400.527 357.159 401.491 356.266 401.487Z" fill="#9A22C2"/>
<path d="M296.41 390.015C295.92 390.013 295.449 389.932 294.996 389.773C294.551 389.607 294.206 389.398 293.962 389.146L294.237 388.609C294.469 388.837 294.78 389.03 295.169 389.189C295.564 389.342 295.979 389.419 296.413 389.421C296.828 389.423 297.164 389.374 297.423 389.275C297.687 389.169 297.88 389.028 298 388.853C298.126 388.677 298.19 388.483 298.191 388.269C298.192 388.011 298.117 387.803 297.967 387.645C297.823 387.488 297.632 387.364 297.393 387.275C297.155 387.18 296.891 387.097 296.602 387.026C296.313 386.956 296.024 386.882 295.735 386.805C295.446 386.722 295.18 386.614 294.935 386.481C294.696 386.348 294.502 386.174 294.352 385.959C294.209 385.739 294.137 385.452 294.139 385.1C294.14 384.773 294.226 384.475 294.397 384.205C294.575 383.929 294.843 383.71 295.202 383.549C295.561 383.381 296.02 383.298 296.58 383.3C296.951 383.302 297.319 383.357 297.683 383.466C298.047 383.568 298.361 383.711 298.624 383.894L298.386 384.45C298.104 384.26 297.803 384.12 297.482 384.031C297.168 383.941 296.864 383.896 296.568 383.894C296.172 383.893 295.845 383.945 295.586 384.05C295.328 384.156 295.136 384.3 295.009 384.482C294.889 384.657 294.828 384.858 294.828 385.084C294.826 385.342 294.898 385.55 295.042 385.708C295.192 385.866 295.387 385.989 295.625 386.078C295.87 386.168 296.137 386.247 296.426 386.318C296.715 386.388 297.001 386.465 297.283 386.548C297.572 386.631 297.836 386.739 298.074 386.872C298.319 386.999 298.513 387.17 298.657 387.385C298.807 387.599 298.881 387.879 298.88 388.225C298.878 388.546 298.789 388.844 298.612 389.12C298.435 389.389 298.163 389.608 297.798 389.776C297.439 389.938 296.976 390.018 296.41 390.015ZM300.393 389.977L300.421 383.375L301.119 383.378L301.091 389.98L300.393 389.977ZM303.239 389.99L303.267 383.388L303.842 383.39L308.374 389.146L308.072 389.144L308.096 383.41L308.784 383.413L308.757 390.015L308.181 390.013L303.659 384.257L303.961 384.259L303.937 389.993L303.239 389.99ZM313.807 390.095C313.304 390.093 312.839 390.009 312.412 389.844C311.992 389.672 311.625 389.434 311.312 389.131C311.005 388.828 310.764 388.471 310.59 388.062C310.422 387.652 310.339 387.206 310.341 386.721C310.343 386.237 310.43 385.791 310.601 385.383C310.779 384.975 311.026 384.621 311.341 384.321C311.657 384.02 312.026 383.79 312.448 383.628C312.876 383.46 313.342 383.377 313.845 383.38C314.348 383.382 314.806 383.463 315.221 383.622C315.641 383.781 315.999 384.022 316.293 384.344L315.857 384.785C315.582 384.507 315.278 384.308 314.945 384.187C314.612 384.065 314.254 384.004 313.87 384.002C313.462 384 313.084 384.068 312.738 384.205C312.398 384.335 312.098 384.526 311.839 384.776C311.587 385.02 311.387 385.308 311.241 385.641C311.102 385.967 311.031 386.328 311.029 386.725C311.028 387.114 311.095 387.476 311.232 387.81C311.375 388.144 311.572 388.437 311.823 388.69C312.08 388.937 312.377 389.13 312.716 389.27C313.062 389.403 313.436 389.471 313.838 389.473C314.215 389.475 314.571 389.42 314.904 389.308C315.244 389.196 315.557 389.006 315.841 388.737L316.235 389.267C315.919 389.542 315.55 389.751 315.128 389.894C314.706 390.03 314.266 390.097 313.807 390.095ZM315.565 389.179L315.575 386.745L316.245 386.749L316.235 389.267L315.565 389.179ZM323.335 390.139C322.492 390.135 321.83 389.89 321.348 389.404C320.865 388.917 320.626 388.199 320.63 387.25L320.646 383.468L321.344 383.471L321.328 387.225C321.325 388.004 321.499 388.581 321.849 388.953C322.2 389.326 322.696 389.514 323.337 389.516C323.985 389.519 324.486 389.336 324.839 388.967C325.193 388.598 325.371 388.023 325.375 387.243L325.39 383.489L326.07 383.493L326.054 387.275C326.05 388.224 325.805 388.94 325.318 389.422C324.838 389.904 324.177 390.143 323.335 390.139ZM328.145 390.105L328.173 383.502L330.644 383.514C331.204 383.516 331.684 383.61 332.086 383.794C332.488 383.972 332.795 384.231 333.007 384.571C333.226 384.906 333.334 385.312 333.332 385.79C333.33 386.255 333.218 386.657 332.997 386.995C332.782 387.328 332.472 387.584 332.069 387.765C331.666 387.945 331.185 388.034 330.625 388.031L328.541 388.022L328.853 387.693L328.843 390.108L328.145 390.105ZM328.853 387.75L328.543 387.409L330.609 387.418C331.269 387.421 331.769 387.282 332.11 387.001C332.457 386.713 332.632 386.308 332.634 385.786C332.636 385.258 332.465 384.849 332.12 384.558C331.782 384.267 331.283 384.12 330.623 384.117L328.557 384.108L328.87 383.779L328.853 387.75Z" fill="#E8E8E3"/>
<path d="M287.295 203.415L257.412 203.277L257.387 208.761L287.27 208.898L287.295 203.415Z" fill="#9A22C2"/>
<path opacity="0.1" d="M287.295 203.415L257.412 203.277L257.387 208.761L287.27 208.898L287.295 203.415Z" fill="black"/>
<path d="M374.926 237.064C374.922 237.041 375.176 237.078 375.608 236.904C376.016 236.746 376.66 236.25 376.734 235.34C376.731 233.487 376.725 230.793 376.718 227.335C376.718 225.593 376.717 223.661 376.716 221.546C376.717 221.016 376.717 220.477 376.717 219.925C376.732 219.36 376.731 218.836 376.391 218.403C376.086 217.972 375.563 217.696 375.017 217.694C374.421 217.693 373.814 217.691 373.197 217.69C368.253 217.681 362.628 217.669 356.413 217.658C331.52 217.565 297.166 217.438 259.222 217.298C258.722 217.294 258.232 217.539 257.942 217.945C257.619 218.356 257.633 218.841 257.64 219.464C257.635 220.643 257.629 221.818 257.625 222.99C257.614 225.334 257.604 227.661 257.594 229.971C257.59 231.128 257.584 232.278 257.578 233.425C257.597 233.975 257.525 234.632 257.627 235.059C257.742 235.525 258.095 235.92 258.535 236.106C258.763 236.199 258.977 236.231 259.254 236.229L260.104 236.233L261.8 236.242C262.928 236.247 264.052 236.253 265.171 236.259C274.119 236.307 282.752 236.353 290.976 236.396C307.418 236.496 322.226 236.587 334.67 236.662C347.091 236.76 357.15 236.84 364.127 236.895C367.587 236.935 370.282 236.967 372.135 236.989C373.034 237.006 373.726 237.019 374.217 237.028C374.686 237.042 374.926 237.064 374.926 237.064C374.926 237.064 374.686 237.084 374.216 237.091C373.725 237.096 373.033 237.103 372.134 237.112C370.279 237.117 367.585 237.124 364.124 237.132C357.146 237.122 347.088 237.108 334.666 237.092C322.223 237.053 307.414 237.006 290.972 236.955C282.748 236.923 274.116 236.889 265.167 236.854C264.048 236.849 262.925 236.845 261.796 236.84L260.1 236.833L259.249 236.83C258.959 236.835 258.598 236.79 258.301 236.66C257.693 236.404 257.209 235.861 257.046 235.213C256.954 234.884 256.975 234.552 256.974 234.284L256.977 233.425C256.982 232.278 256.987 231.127 256.991 229.971C257.001 227.66 257.01 225.333 257.019 222.99C257.024 221.819 257.029 220.643 257.033 219.464C257.042 219.161 257.016 218.896 257.063 218.535C257.115 218.196 257.246 217.867 257.452 217.59C257.85 217.029 258.536 216.686 259.224 216.694C297.166 216.904 331.52 217.094 356.412 217.231C362.629 217.277 368.253 217.317 373.197 217.353C373.814 217.358 374.422 217.363 375.017 217.368C375.668 217.374 376.287 217.709 376.642 218.22C377.041 218.721 377.038 219.407 377.014 219.927C377.01 220.479 377.006 221.019 377.002 221.548C376.982 223.663 376.966 225.595 376.95 227.336C376.907 230.799 376.875 233.496 376.852 235.35C376.751 236.319 376.055 236.817 375.626 236.962C375.176 237.122 374.926 237.064 374.926 237.064Z" fill="#E0E0E0"/>
<path d="M320.096 224.62L265.432 224.368L265.408 229.494L320.072 229.745L320.096 224.62Z" fill="#9A22C2"/>
<path opacity="0.2" d="M320.096 224.62L265.432 224.368L265.408 229.494L320.072 229.745L320.096 224.62Z" fill="white"/>
<path d="M287.086 253.455L257.203 253.317L257.178 258.801L287.061 258.938L287.086 253.455Z" fill="#9A22C2"/>
<path opacity="0.1" d="M287.086 253.455L257.203 253.317L257.178 258.801L287.061 258.938L287.086 253.455Z" fill="black"/>
<path d="M374.159 287.101C374.156 287.081 374.403 287.103 374.848 286.971C375.269 286.833 375.949 286.484 376.32 285.655C376.519 285.246 376.538 284.75 376.521 284.181C376.519 283.617 376.516 283.001 376.514 282.335C376.512 280.998 376.508 279.458 376.505 277.729C376.505 275.994 376.503 274.067 376.503 271.961C376.503 271.433 376.503 270.895 376.503 270.345C376.529 269.79 376.462 269.275 376.164 268.812C375.885 268.356 375.431 267.995 374.901 267.833C374.382 267.668 373.76 267.758 373.145 267.733C368.218 267.724 362.613 267.712 356.417 267.701C331.611 267.609 297.376 267.481 259.564 267.342C258.514 267.316 257.544 268.173 257.443 269.211C257.408 270.316 257.424 271.538 257.412 272.69C257.402 275.025 257.391 277.345 257.382 279.647C257.378 280.799 257.372 281.947 257.367 283.089C257.387 283.66 257.306 284.256 257.44 284.711C257.572 285.192 257.878 285.621 258.289 285.902C258.715 286.189 259.176 286.295 259.734 286.274L261.425 286.282C262.55 286.288 263.669 286.294 264.784 286.3C273.702 286.346 282.305 286.393 290.499 286.436C306.885 286.536 321.641 286.626 334.042 286.702C346.419 286.799 356.443 286.878 363.396 286.933C366.845 286.974 369.529 287.005 371.377 287.027C372.273 287.045 372.962 287.057 373.452 287.067C373.919 287.079 374.159 287.101 374.159 287.101C374.159 287.101 373.919 287.121 373.451 287.128C372.962 287.133 372.271 287.14 371.376 287.149C369.529 287.154 366.844 287.161 363.395 287.17C356.443 287.161 346.418 287.147 334.039 287.131C321.638 287.092 306.882 287.046 290.497 286.995C282.301 286.962 273.699 286.928 264.782 286.893C263.666 286.889 262.547 286.884 261.422 286.88L259.732 286.873C259.164 286.903 258.465 286.766 257.952 286.398C257.425 286.038 257.032 285.489 256.863 284.87C256.69 284.22 256.793 283.654 256.768 283.087C256.772 281.945 256.776 280.796 256.78 279.645C256.79 277.342 256.8 275.023 256.808 272.687C256.822 271.504 256.799 270.381 256.842 269.139C256.971 267.802 258.219 266.701 259.567 266.735C297.378 266.944 331.612 267.134 356.418 267.271C362.613 267.316 368.217 267.357 373.145 267.394C373.753 267.427 374.368 267.328 374.996 267.521C375.604 267.71 376.117 268.126 376.43 268.647C376.764 269.157 376.836 269.809 376.802 270.345C376.797 270.895 376.794 271.433 376.789 271.962C376.771 274.069 376.753 275.995 376.738 277.73C376.72 279.46 376.705 280.999 376.691 282.336C376.682 283.002 376.675 283.618 376.67 284.181C376.68 284.736 376.646 285.285 376.429 285.705C376.02 286.568 375.302 286.907 374.863 287.031C374.403 287.146 374.159 287.101 374.159 287.101Z" fill="#E0E0E0"/>
<path d="M286.86 305.65L256.977 305.513L256.951 310.996L286.835 311.134L286.86 305.65Z" fill="#9A22C2"/>
<path opacity="0.1" d="M286.86 305.65L256.977 305.513L256.951 310.996L286.835 311.134L286.86 305.65Z" fill="black"/>
<path d="M373.937 339.29C373.936 339.269 374.183 339.291 374.626 339.161C375.049 339.023 375.728 338.673 376.099 337.843C376.297 337.434 376.317 336.938 376.3 336.37C376.297 335.805 376.295 335.189 376.293 334.523C376.29 333.186 376.288 331.646 376.285 329.917C376.283 328.182 376.283 326.256 376.282 324.148C376.282 323.621 376.283 323.082 376.283 322.531C376.308 321.976 376.242 321.462 375.944 320.999C375.664 320.543 375.211 320.182 374.681 320.019C374.162 319.855 373.54 319.945 372.924 319.919C367.998 319.909 362.392 319.898 356.197 319.887C331.39 319.795 297.156 319.668 259.344 319.528C258.293 319.502 257.324 320.359 257.223 321.397C257.188 322.502 257.204 323.724 257.194 324.876C257.183 327.211 257.173 329.531 257.163 331.833C257.159 332.985 257.153 334.131 257.148 335.275C257.168 335.845 257.086 336.441 257.22 336.897C257.352 337.378 257.658 337.807 258.069 338.088C258.495 338.375 258.956 338.482 259.514 338.46L261.205 338.468C262.33 338.474 263.449 338.48 264.564 338.486C273.481 338.533 282.084 338.579 290.279 338.622C306.665 338.723 321.421 338.812 333.822 338.888C346.199 338.985 356.223 339.064 363.176 339.119C366.625 339.16 369.31 339.192 371.157 339.213C372.053 339.231 372.743 339.242 373.232 339.253C373.698 339.269 373.937 339.29 373.937 339.29C373.937 339.29 373.698 339.31 373.231 339.317C372.741 339.321 372.051 339.328 371.156 339.338C369.308 339.342 366.623 339.349 363.174 339.358C356.222 339.348 346.198 339.335 333.818 339.319C321.417 339.281 306.661 339.234 290.276 339.183C282.08 339.15 273.478 339.117 264.561 339.082C263.445 339.077 262.326 339.071 261.201 339.067L259.511 339.06C258.942 339.09 258.244 338.952 257.73 338.586C257.204 338.224 256.811 337.676 256.642 337.058C256.47 336.407 256.572 335.84 256.546 335.274C256.551 334.132 256.556 332.984 256.56 331.833C256.57 329.53 256.579 327.21 256.588 324.875C256.602 323.693 256.579 322.571 256.622 321.328C256.751 319.99 257.999 318.89 259.347 318.925C297.158 319.134 331.391 319.323 356.198 319.46C362.392 319.506 367.997 319.546 372.925 319.582C373.533 319.614 374.148 319.516 374.776 319.709C375.383 319.898 375.895 320.314 376.21 320.836C376.544 321.346 376.616 321.998 376.582 322.535C376.577 323.085 376.573 323.623 376.568 324.15C376.55 326.258 376.533 328.185 376.518 329.918C376.5 331.649 376.485 333.188 376.471 334.526C376.462 335.19 376.454 335.807 376.447 336.371C376.458 336.926 376.424 337.475 376.207 337.894C375.798 338.757 375.08 339.097 374.642 339.22C374.183 339.333 373.937 339.29 373.937 339.29Z" fill="#E0E0E0"/>
<path d="M319.888 274.661L265.223 274.409L265.199 279.535L319.864 279.786L319.888 274.661Z" fill="#9A22C2"/>
<path opacity="0.2" d="M319.888 274.661L265.223 274.409L265.199 279.535L319.864 279.786L319.888 274.661Z" fill="white"/>
<path d="M270.18 329.804C270.174 331.211 269.099 332.348 267.779 332.342C266.459 332.335 265.395 331.189 265.4 329.782C265.406 328.375 266.481 327.237 267.801 327.244C269.121 327.25 270.186 328.396 270.18 329.804Z" fill="#9A22C2"/>
<path d="M277.584 329.839C277.578 331.246 276.503 332.383 275.183 332.377C273.863 332.371 272.799 331.225 272.805 329.817C272.811 328.41 273.885 327.274 275.205 327.279C276.525 327.284 277.59 328.431 277.584 329.839Z" fill="#9A22C2"/>
<path d="M284.988 329.872C284.983 331.28 283.908 332.417 282.588 332.41C281.268 332.404 280.203 331.259 280.209 329.85C280.215 328.443 281.29 327.307 282.61 327.313C283.929 327.318 284.994 328.464 284.988 329.872Z" fill="#9A22C2"/>
<path d="M292.393 329.907C292.388 331.314 291.313 332.451 289.994 332.444C288.674 332.439 287.608 331.293 287.615 329.884C287.621 328.477 288.696 327.341 290.016 327.347C291.335 327.354 292.4 328.499 292.393 329.907Z" fill="#9A22C2"/>
<path d="M299.798 329.941C299.792 331.349 298.717 332.486 297.397 332.479C296.077 332.473 295.012 331.327 295.018 329.92C295.025 328.512 296.099 327.375 297.418 327.381C298.738 327.388 299.803 328.534 299.798 329.941Z" fill="#9A22C2"/>
<path d="M307.203 329.976C307.197 331.384 306.122 332.521 304.802 332.514C303.482 332.508 302.418 331.362 302.424 329.955C302.43 328.547 303.505 327.411 304.823 327.416C306.145 327.422 307.209 328.569 307.203 329.976Z" fill="#9A22C2"/>
<path d="M314.613 330.008C314.606 331.416 313.532 332.553 312.213 332.547C310.893 332.54 309.828 331.394 309.834 329.987C309.84 328.579 310.915 327.443 312.234 327.449C313.552 327.455 314.618 328.601 314.613 330.008Z" fill="#9A22C2"/>
<path d="M322.016 330.043C322.011 331.451 320.936 332.588 319.617 332.582C318.297 332.575 317.231 331.431 317.238 330.022C317.244 328.615 318.319 327.479 319.638 327.484C320.958 327.49 322.022 328.636 322.016 330.043Z" fill="#9A22C2"/>
<path d="M329.422 330.078C329.416 331.486 328.341 332.622 327.022 332.616C325.702 332.61 324.637 331.465 324.643 330.056C324.65 328.649 325.724 327.514 327.043 327.519C328.363 327.523 329.428 328.67 329.422 330.078Z" fill="#9A22C2"/>
<g opacity="0.2">
<path d="M270.18 329.804C270.174 331.211 269.099 332.348 267.779 332.342C266.459 332.335 265.395 331.189 265.4 329.782C265.406 328.375 266.481 327.237 267.801 327.244C269.121 327.25 270.186 328.396 270.18 329.804Z" fill="white"/>
<path d="M277.584 329.839C277.578 331.246 276.503 332.383 275.183 332.377C273.863 332.371 272.799 331.225 272.805 329.817C272.811 328.41 273.885 327.274 275.205 327.279C276.525 327.284 277.59 328.431 277.584 329.839Z" fill="white"/>
<path d="M284.988 329.872C284.983 331.28 283.908 332.417 282.588 332.41C281.268 332.404 280.203 331.259 280.209 329.85C280.215 328.443 281.29 327.307 282.61 327.313C283.929 327.318 284.994 328.464 284.988 329.872Z" fill="white"/>
<path d="M292.393 329.907C292.388 331.314 291.313 332.451 289.994 332.444C288.674 332.439 287.608 331.293 287.615 329.884C287.621 328.477 288.696 327.341 290.016 327.347C291.335 327.354 292.4 328.499 292.393 329.907Z" fill="white"/>
<path d="M299.798 329.941C299.792 331.349 298.717 332.486 297.397 332.479C296.077 332.473 295.012 331.327 295.018 329.92C295.025 328.512 296.099 327.375 297.418 327.381C298.738 327.388 299.803 328.534 299.798 329.941Z" fill="white"/>
<path d="M307.203 329.976C307.197 331.384 306.122 332.521 304.802 332.514C303.482 332.508 302.418 331.362 302.424 329.955C302.43 328.547 303.505 327.411 304.823 327.416C306.145 327.422 307.209 328.569 307.203 329.976Z" fill="white"/>
<path d="M314.613 330.008C314.606 331.416 313.532 332.553 312.213 332.547C310.893 332.54 309.828 331.394 309.834 329.987C309.84 328.579 310.915 327.443 312.234 327.449C313.552 327.455 314.618 328.601 314.613 330.008Z" fill="white"/>
<path d="M322.016 330.043C322.011 331.451 320.936 332.588 319.617 332.582C318.297 332.575 317.231 331.431 317.238 330.022C317.244 328.615 318.319 327.479 319.638 327.484C320.958 327.49 322.022 328.636 322.016 330.043Z" fill="white"/>
<path d="M329.422 330.078C329.416 331.486 328.341 332.622 327.022 332.616C325.702 332.61 324.637 331.465 324.643 330.056C324.65 328.649 325.724 327.514 327.043 327.519C328.363 327.523 329.428 328.67 329.422 330.078Z" fill="white"/>
</g>
<path d="M318.903 162.325C320.467 161.669 321.579 160.057 321.589 158.157C321.599 155.668 319.715 153.642 317.381 153.63C315.048 153.619 313.147 155.629 313.137 158.118C313.129 160.035 314.249 161.667 315.83 162.325C309.326 163.305 309.621 170.373 309.621 170.373L324.999 170.444C324.999 170.444 325.35 163.299 318.903 162.325Z" fill="#9A22C2"/>
<path opacity="0.1" d="M318.903 162.325C320.467 161.669 321.579 160.057 321.589 158.157C321.599 155.668 319.715 153.642 317.381 153.63C315.048 153.619 313.147 155.629 313.137 158.118C313.129 160.035 314.249 161.667 315.83 162.325C309.326 163.305 309.621 170.373 309.621 170.373L324.999 170.444C324.999 170.444 325.35 163.299 318.903 162.325Z" fill="black"/>
<path d="M343.901 175.067L289.062 174.814L289.032 181.372L343.871 181.624L343.901 175.067Z" fill="#9A22C2"/>
<path opacity="0.2" d="M343.901 175.067L289.062 174.814L289.032 181.372L343.871 181.624L343.901 175.067Z" fill="white"/>
<path d="M198.878 533.974V524.032L181.064 523.912L180.916 538.931L182.02 539.013C186.934 539.331 207.027 539.793 210.319 538.774C213.992 537.639 198.878 533.974 198.878 533.974Z" fill="#9A22C2"/>
<path d="M210.743 537.842C210.743 538.011 204.079 538.145 195.861 538.145C187.64 538.145 180.979 538.011 180.979 537.842C180.979 537.675 187.64 537.54 195.861 537.54C204.079 537.541 210.743 537.676 210.743 537.842Z" fill="#263238"/>
<path d="M199.19 536.002C199.044 535.926 199.169 535.4 199.552 534.882C199.933 534.363 200.399 534.086 200.515 534.204C200.635 534.323 200.391 534.76 200.039 535.241C199.686 535.719 199.34 536.082 199.19 536.002Z" fill="#263238"/>
<path d="M200.329 536.658C200.174 536.6 200.255 536.011 200.604 535.391C200.953 534.77 201.417 534.398 201.546 534.499C201.679 534.603 201.455 535.11 201.131 535.688C200.807 536.264 200.488 536.719 200.329 536.658Z" fill="#263238"/>
<path d="M186.347 537.797C186.278 537.846 186.013 537.585 185.627 537.148C185.239 536.714 184.731 536.101 184.064 535.583C183.403 535.067 182.674 534.808 182.136 534.74C181.595 534.667 181.239 534.752 181.209 534.665C181.178 534.6 181.509 534.351 182.151 534.312C182.784 534.269 183.677 534.51 184.434 535.103C185.185 535.689 185.667 536.389 185.972 536.896C186.277 537.407 186.414 537.751 186.347 537.797Z" fill="#263238"/>
<path d="M199.247 534.134C199.334 534.275 199.029 534.62 198.52 534.806C198.012 534.994 197.554 534.928 197.531 534.765C197.504 534.598 197.865 534.404 198.31 534.239C198.757 534.075 199.159 533.99 199.247 534.134Z" fill="#263238"/>
<path d="M198.966 533.173C198.982 533.341 198.507 533.483 197.906 533.49C197.304 533.499 196.825 533.37 196.838 533.202C196.85 533.035 197.324 532.893 197.898 532.885C198.471 532.878 198.949 533.007 198.966 533.173Z" fill="#263238"/>
<path d="M242.748 533.973L242.749 524.031L224.935 523.911L224.787 538.778L225.891 538.859C230.805 539.176 250.898 539.792 254.192 538.773C257.863 537.638 242.748 533.973 242.748 533.973Z" fill="#9A22C2"/>
<path d="M254.61 537.864C254.61 538.03 247.947 538.167 239.729 538.167C231.507 538.167 224.846 538.031 224.846 537.864C224.846 537.697 231.507 537.561 239.729 537.561C247.946 537.561 254.61 537.697 254.61 537.864Z" fill="#263238"/>
<path d="M243.063 536.001C242.917 535.925 243.042 535.399 243.426 534.881C243.807 534.362 244.273 534.085 244.389 534.203C244.509 534.322 244.265 534.759 243.913 535.24C243.559 535.718 243.212 536.081 243.063 536.001Z" fill="#263238"/>
<path d="M244.194 536.658C244.04 536.6 244.12 536.011 244.47 535.391C244.818 534.77 245.282 534.398 245.411 534.499C245.544 534.603 245.32 535.11 244.997 535.688C244.672 536.264 244.352 536.719 244.194 536.658Z" fill="#263238"/>
<path d="M230.217 537.796C230.147 537.845 229.882 537.584 229.496 537.147C229.109 536.713 228.6 536.1 227.933 535.582C227.272 535.066 226.545 534.807 226.005 534.739C225.464 534.666 225.108 534.751 225.078 534.664C225.047 534.599 225.378 534.35 226.019 534.312C226.652 534.269 227.546 534.509 228.302 535.102C229.055 535.688 229.533 536.388 229.84 536.895C230.147 537.406 230.284 537.75 230.217 537.796Z" fill="#263238"/>
<path d="M243.114 534.133C243.201 534.274 242.896 534.619 242.388 534.805C241.879 534.993 241.422 534.927 241.398 534.764C241.371 534.597 241.733 534.403 242.178 534.238C242.624 534.074 243.026 533.989 243.114 534.133Z" fill="#263238"/>
<path d="M242.835 533.172C242.851 533.34 242.376 533.482 241.775 533.489C241.173 533.498 240.696 533.369 240.707 533.201C240.719 533.034 241.194 532.892 241.768 532.884C242.341 532.877 242.819 533.006 242.835 533.172Z" fill="#263238"/>
<path d="M308.373 238.946C307.908 238.467 306.765 238.693 306.765 238.693C306.765 238.693 306.965 237.334 306.753 236.678C306.543 236.021 305.079 236.148 305.079 236.148C305.079 236.148 304.988 235.516 305.116 234.496C305.149 234.24 305.007 234.052 304.776 233.911C304.082 233.492 302.586 233.512 302.586 233.512C301.689 232.87 305.319 227.794 306.665 226.17C307.995 224.565 307.771 223.279 306.571 223.281C305.753 223.282 301.515 228.162 300.222 229.8C298.929 231.437 295.462 235.994 295.345 232.358C295.226 228.722 293.766 225.971 292.852 225.503C291.939 225.035 290.954 226.134 291.459 227.144C291.868 227.959 292.126 229.532 292.272 230.72C292.393 231.701 292.353 232.696 292.139 233.659C291.532 236.383 290.88 238.151 290.575 238.908L290.485 238.858C290.485 238.858 265.122 263.177 263.294 264.913C261.649 266.475 228.692 263.066 222.09 262.365C220.285 262.163 217.613 261.8 215.297 261.903C212.433 262.028 211.924 262.435 209.057 262.473C200.279 262.591 192.964 263.445 187.52 264.366C180.939 265.479 175.543 270.164 173.506 276.522C166.841 297.318 151.766 346.553 149.079 374.213C146.963 378.192 144.598 382.839 143.637 385.453C141.77 390.537 142.223 390.71 142.853 390.828C144.543 391.14 146.476 382.01 147.198 384.214C147.921 386.418 143.535 395.105 145.314 395.359C147.634 395.691 149.482 386.096 149.698 385.295C149.909 384.518 151.079 384.781 150.845 385.493C150.508 386.517 147.239 397.358 149.514 397.706C150.774 397.898 150.91 395.601 150.91 395.601C150.91 395.601 153.223 385.233 154.291 385.433C155.376 385.636 154.223 391.769 153.688 393.809C153.159 395.825 153.904 396.897 154.991 396.39C155.733 396.044 157.519 389.832 158 387.802C158.482 385.772 159.703 380.179 161.344 383.426C162.985 386.672 165.468 388.55 166.494 388.591C167.519 388.63 167.949 387.219 167.065 386.516C166.35 385.948 165.453 384.632 164.818 383.615C164.296 382.777 163.912 381.858 163.701 380.894C162.884 377.175 162.891 375.013 162.891 375.013L162.701 373.818C165.303 360.928 172.804 323.111 183.578 298.951L188.014 308.081L189.94 314.839L178.116 344.05L228.562 343.386L221.042 314.406L230.179 284.189H230.177C240.066 284.409 265.464 284.778 269.732 282.87C275.053 280.492 302.591 245.779 302.591 245.779H302.59C304.45 244.297 306.342 242.704 307.737 241.313C307.74 241.311 309.382 239.983 308.373 238.946Z" fill="#FFBE9D"/>
<path d="M175.923 322.542C177.384 317.547 184.904 292.845 184.904 292.845C184.904 292.845 188.595 312.984 187.625 315.409C186.507 318.203 184.452 321.401 184.452 321.401C175.923 334.391 177.042 340.883 177.042 340.883L228.565 339.312C228.691 332.107 224.425 315.354 223.534 312.685C222.641 310.016 225.6 301.256 225.6 301.256C225.6 301.256 231.423 295.342 231.197 292.299C230.743 286.168 230.182 284.188 230.182 284.188L261.532 285.342L260.547 264.069L215.481 259.56C213.922 263.997 199.73 261.823 199.73 261.823C184.409 262.326 183.482 265.144 177.092 270.091C170.704 275.037 160.182 317.522 160.182 317.522L175.923 322.542Z" fill="#9A22C2"/>
<path d="M206.397 317.518C206.396 317.598 205.359 317.667 203.681 317.655C202.004 317.645 199.686 317.54 197.139 317.286C194.591 317.028 192.299 316.669 190.653 316.345C189.007 316.022 188.005 315.748 188.02 315.669C188.036 315.585 189.064 315.709 190.721 315.923C192.378 316.138 194.665 316.428 197.199 316.683C199.733 316.937 202.031 317.108 203.697 317.228C205.365 317.349 206.398 317.431 206.397 317.518Z" fill="#263238"/>
<path d="M209.918 313.137C209.94 313.211 208.877 313.615 207.105 314.096C205.334 314.576 202.846 315.107 200.062 315.439C197.276 315.768 194.733 315.836 192.898 315.783C191.062 315.731 189.935 315.585 189.939 315.51C189.943 315.42 191.075 315.412 192.897 315.355C194.719 315.298 197.231 315.165 199.99 314.838C202.746 314.509 205.221 314.05 207.006 313.68C208.791 313.308 209.893 313.05 209.918 313.137Z" fill="#263238"/>
<path d="M227.251 293.59C227.332 293.608 227.199 294.611 226.899 296.219C226.599 297.826 226.129 300.033 225.535 302.455C224.94 304.878 224.337 307.054 223.859 308.617C223.382 310.181 223.036 311.133 222.955 311.111C222.874 311.087 223.075 310.096 223.446 308.507C223.885 306.693 224.391 304.61 224.947 302.312C225.516 300.017 226.032 297.938 226.482 296.127C226.888 294.544 227.169 293.573 227.251 293.59Z" fill="#263238"/>
<path d="M176.462 319.582C176.418 319.744 172.865 318.915 168.526 317.731C164.186 316.546 160.704 315.457 160.748 315.295C160.793 315.133 164.345 315.963 168.685 317.147C173.024 318.331 176.506 319.422 176.462 319.582Z" fill="#263238"/>
<path d="M230.75 283.916C230.75 283.944 230.272 283.994 229.416 283.909C228.564 283.822 227.317 283.623 225.873 283.064C224.427 282.523 222.784 281.617 221.249 280.249C219.714 278.885 218.342 277.01 217.467 274.803C216.578 272.598 216.286 270.299 216.426 268.253C216.561 266.21 217.102 264.364 218.017 263.071C218.922 261.76 220.122 261.125 220.958 260.906C221.38 260.793 221.722 260.766 221.95 260.772C222.179 260.778 222.296 260.804 222.296 260.822C222.298 260.879 221.814 260.852 221.028 261.13C220.257 261.407 219.172 262.059 218.372 263.31C216.791 265.797 216.349 270.337 218.03 274.58C218.873 276.702 220.169 278.503 221.626 279.837C223.082 281.177 224.648 282.091 226.033 282.668C228.824 283.825 230.771 283.787 230.75 283.916Z" fill="#263238"/>
<path d="M257.835 284.916C257.669 284.916 257.542 280.121 257.553 274.208C257.565 268.292 257.71 263.5 257.877 263.5C258.044 263.501 258.169 268.294 258.158 274.209C258.147 280.122 258.002 284.917 257.835 284.916Z" fill="#263238"/>
<path d="M215.202 260.855C215.328 258.261 215.6 255.332 215.6 255.332C215.6 255.332 222.012 254.625 222.401 248C222.791 241.376 222.401 226.101 222.401 226.101L210.722 220.154L197.875 230.293L199.821 263.411L211.642 264.163C213.506 264.281 215.106 262.796 215.202 260.855Z" fill="#FFBE9D"/>
<path d="M216.354 242.762C216.373 242.767 216.374 242.887 216.253 243.047C216.134 243.203 215.875 243.379 215.515 243.372C214.77 243.336 214.054 242.514 213.791 241.51C213.658 240.999 213.659 240.482 213.759 240.037C213.838 239.599 214.092 239.159 214.457 239.039C214.631 238.974 214.812 238.981 214.95 239.051C215.086 239.119 215.17 239.223 215.213 239.318C215.3 239.516 215.233 239.635 215.215 239.626C215.189 239.625 215.196 239.516 215.098 239.391C215.006 239.265 214.788 239.15 214.546 239.275C214.3 239.387 214.131 239.701 214.068 240.105C213.995 240.504 214.005 240.963 214.122 241.418C214.354 242.317 214.978 243.054 215.533 243.12C215.807 243.155 216.035 243.049 216.158 242.949C216.286 242.845 216.33 242.751 216.354 242.762Z" fill="#EB996E"/>
<path d="M226.382 222.526C225.49 219.477 222.248 217.961 219.294 217.125C214.8 215.851 209.933 215.288 205.543 216.904C201.153 218.52 195.873 221.364 195.874 226.214C193.283 226 191.802 228.271 190.774 231.084C190.166 232.746 189.766 234.595 189.672 236.428L189.629 236.414C189.296 242.762 187.527 251.508 183.411 256.204C181.139 258.796 177.866 260.587 176.542 263.816C175.39 266.622 175.986 269.939 174.897 272.772C173.936 275.272 171.809 277.048 170.283 279.223C166.961 283.962 166.734 290.656 169.176 295.944C171.617 301.233 176.454 305.102 181.824 306.875C187.194 308.649 193.043 308.453 198.508 307.031C202.543 305.981 206.468 304.242 209.683 301.494C212.898 298.746 215.365 294.926 216.101 290.662C216.919 285.915 215.591 281.095 214.613 276.381C211.522 261.467 212.406 260.692 216.306 246.857C216.395 246.613 216.449 246.358 216.517 246.107C216.568 245.924 216.618 245.748 216.67 245.56L216.662 245.558C216.771 245.016 216.842 244.465 216.844 243.903C215.715 244.348 214.351 244.052 213.484 243.176C212.618 242.299 212.295 240.886 212.689 239.698C213.142 238.33 214.397 237.417 215.686 236.874C216.975 236.331 218.361 236.063 219.626 235.462C222.309 234.185 224.17 231.536 225.435 228.76C226.324 226.813 226.985 224.585 226.382 222.526Z" fill="#263238"/>
<path d="M216.816 243.043C216.856 243.026 217.082 243.458 217.427 244.192C217.772 244.925 218.234 245.96 218.749 247.15L218.846 247.375L218.599 247.396C218.212 247.43 217.821 247.464 217.416 247.499C216.605 247.551 215.929 247.648 215.143 247.64C215.019 247.618 214.881 247.504 214.844 247.377C214.802 247.251 214.813 247.145 214.826 247.054C214.86 246.871 214.901 246.736 214.935 246.582L215.141 245.759C215.398 244.755 215.582 244.139 215.63 244.151C215.679 244.162 215.584 244.798 215.391 245.815L215.229 246.646C215.17 246.927 215.068 247.346 215.219 247.314C215.798 247.289 216.622 247.193 217.386 247.136C217.791 247.104 218.182 247.073 218.569 247.042L218.42 247.288C217.923 246.093 217.501 245.039 217.213 244.281C216.928 243.525 216.775 243.061 216.816 243.043Z" fill="#9A22C2"/>
<path d="M177.038 340.884L228.561 339.312L250.97 426.856L246.843 527.275H219.572L222.951 428.994L203.02 368.052L206.091 531.169L178.559 531.576L175.659 378.252C175.538 373.991 174.135 364.377 174.657 360.149L177.038 340.884Z" fill="#263238"/>
<path d="M209.883 369.289C209.872 369.37 208.906 369.322 207.355 369.139C205.805 368.957 203.673 368.629 201.337 368.161C199.002 367.69 196.909 367.168 195.409 366.735C193.909 366.303 192.999 365.976 193.02 365.896C193.066 365.728 196.807 366.635 201.457 367.567C206.104 368.507 209.905 369.116 209.883 369.289Z" fill="#455A64"/>
<path d="M246.597 521.769C246.597 521.937 240.422 522.072 232.809 522.072C225.192 522.072 219.02 521.937 219.02 521.769C219.02 521.603 225.192 521.467 232.809 521.467C240.422 521.468 246.597 521.603 246.597 521.769Z" fill="#455A64"/>
<path d="M205.847 526.931C205.847 527.1 199.858 527.234 192.47 527.234C185.081 527.234 179.092 527.1 179.092 526.931C179.092 526.764 185.081 526.629 192.47 526.629C199.858 526.629 205.847 526.764 205.847 526.931Z" fill="#455A64"/>
<path d="M202.299 526.513C202.132 526.515 201.408 490.872 200.682 446.912C199.955 402.936 199.502 367.295 199.67 367.293C199.837 367.291 200.561 402.926 201.287 446.902C202.013 490.862 202.466 526.509 202.299 526.513Z" fill="#455A64"/>
<path d="M242.934 521.767C242.924 521.767 242.92 521.605 242.921 521.292C242.927 520.95 242.937 520.489 242.947 519.9C242.983 518.644 243.035 516.848 243.102 514.551C243.264 509.873 243.497 503.159 243.785 494.877C244.42 478.24 245.298 455.308 246.267 429.979C246.276 429.745 246.285 429.512 246.294 429.296L246.303 429.382C240.197 404.93 234.677 382.829 230.675 366.805C228.711 358.823 227.121 352.355 226.012 347.849C225.48 345.634 225.065 343.902 224.775 342.691C224.644 342.122 224.543 341.677 224.468 341.346C224.402 341.042 224.372 340.886 224.383 340.884C224.392 340.881 224.441 341.034 224.527 341.332C224.616 341.659 224.737 342.1 224.892 342.663C225.209 343.868 225.661 345.591 226.24 347.794C227.393 352.288 229.046 358.739 231.088 366.702C235.134 382.715 240.715 404.801 246.889 429.235L246.899 429.277L246.898 429.321C246.89 429.536 246.879 429.77 246.871 430.005C245.833 455.33 244.893 478.258 244.211 494.894C243.843 503.173 243.544 509.883 243.336 514.56C243.22 516.856 243.131 518.65 243.068 519.906C243.032 520.494 243.004 520.954 242.983 521.296C242.961 521.609 242.945 521.768 242.934 521.767Z" fill="#455A64"/>
<path d="M234.045 427.255C234.073 427.42 231.376 428.019 228.02 428.595C225.515 429.027 223.351 429.322 222.407 429.375L222.405 429.139C222.719 429.225 222.888 429.293 222.881 429.335C222.875 429.376 222.692 429.389 222.368 429.375L221.664 429.345L222.367 429.139C223.276 428.873 225.414 428.43 227.919 428.001C231.273 427.423 234.016 427.088 234.045 427.255Z" fill="#455A64"/>
<path d="M233.525 430.594C233.502 430.763 231.081 430.576 228.101 430.347C225.12 430.112 222.7 429.922 222.703 429.751C222.707 429.586 225.148 429.507 228.148 429.743C231.146 429.974 233.547 430.432 233.525 430.594Z" fill="#455A64"/>
<path opacity="0.2" d="M176.809 342.734C178.054 344.487 179.831 345.102 181.896 345.44C183.96 345.778 186.066 345.553 188.144 345.321C201.443 343.846 215.536 342.485 228.561 339.312C211.701 340.256 193.897 339.938 177.037 340.883C177.037 340.883 176.893 342.042 176.86 342.321" fill="black"/>
<g opacity="0.2">
<path d="M194.188 366.497L203.686 403.371L203.021 368.051L194.188 366.497Z" fill="black"/>
</g>
</svg>
