<svg width="1037" height="1080" viewBox="0 0 1037 1080" fill="none" xmlns="http://www.w3.org/2000/svg">
<path d="M892.5 775.289H138.5V775.666H892.5V775.289Z" fill="#EBEBEB"/>
<path d="M816.95 799.562H784.258V799.939H816.95V799.562Z" fill="#EBEBEB"/>
<path d="M658.259 791.738H606.822V792.115H658.259V791.738Z" fill="#EBEBEB"/>
<path d="M803.694 785.558H736.551V785.935H803.694V785.558Z" fill="#EBEBEB"/>
<path d="M399.407 793.162H382.611V793.539H399.407V793.162Z" fill="#EBEBEB"/>
<path d="M369.186 793.162H311.295V793.539H369.186V793.162Z" fill="#EBEBEB"/>
<path d="M280.254 786.795H238.49V787.172H280.254V786.795Z" fill="#EBEBEB"/>
<path d="M495.916 708.035H204.723C199.977 708.035 196.115 704.173 196.115 699.427V290.108C196.115 285.362 199.977 281.5 204.723 281.5H495.916C500.66 281.5 504.522 285.362 504.522 290.108V699.427C504.522 704.173 500.66 708.035 495.916 708.035ZM204.723 281.879C200.184 281.879 196.492 285.57 196.492 290.109V699.429C196.492 703.968 200.184 707.659 204.723 707.659H495.916C500.454 707.659 504.145 703.968 504.145 699.429V290.108C504.145 285.57 500.454 281.877 495.916 281.877L204.723 281.879Z" fill="#EBEBEB"/>
<path d="M822.091 708.035H530.899C526.153 708.035 522.293 704.173 522.293 699.427V290.108C522.293 285.362 526.155 281.5 530.899 281.5H822.091C826.838 281.5 830.699 285.362 830.699 290.108V699.427C830.7 704.173 826.838 708.035 822.091 708.035ZM530.899 281.879C526.362 281.879 522.67 285.57 522.67 290.109V699.429C522.67 703.968 526.362 707.659 530.899 707.659H822.091C826.63 707.659 830.322 703.968 830.322 699.429V290.108C830.322 285.57 826.63 281.877 822.091 281.877L530.899 281.879Z" fill="#EBEBEB"/>
<path d="M311.888 461.971C329.303 461.971 343.421 447.853 343.421 430.437C343.421 413.021 329.303 398.903 311.888 398.903H308.02V461.969L311.888 461.971Z" fill="#E0E0E0"/>
<path d="M308.02 461.971C325.436 461.971 339.554 447.853 339.554 430.437C339.554 413.021 325.436 398.903 308.02 398.903C290.604 398.903 276.486 413.021 276.486 430.437C276.486 447.853 290.604 461.971 308.02 461.971Z" fill="#F5F5F5"/>
<path d="M306.576 434.4C283.301 434.4 264.365 415.464 264.365 392.19V366.97C264.365 364.78 266.14 363.007 268.328 363.007C270.516 363.007 272.291 364.782 272.291 366.97V392.19C272.291 411.094 287.671 426.473 306.574 426.473C308.762 426.473 310.537 428.247 310.537 430.436C310.537 432.624 308.764 434.4 306.576 434.4Z" fill="#E0E0E0"/>
<path d="M233.251 389.173H303.405C308.213 389.173 311.717 384.621 310.487 379.973L304.402 356.999C303.551 353.787 300.644 351.549 297.322 351.549H239.338C236.014 351.549 233.108 353.785 232.258 356.999L226.173 379.973C224.939 384.619 228.444 389.173 233.251 389.173Z" fill="#F5F5F5"/>
<path d="M757.2 461.971C774.616 461.971 788.734 447.853 788.734 430.437C788.734 413.021 774.616 398.903 757.2 398.903H753.332V461.969L757.2 461.971Z" fill="#E0E0E0"/>
<path d="M753.331 461.971C770.746 461.971 784.864 447.853 784.864 430.437C784.864 413.021 770.746 398.903 753.331 398.903C735.915 398.903 721.797 413.021 721.797 430.437C721.797 447.853 735.915 461.971 753.331 461.971Z" fill="#F5F5F5"/>
<path d="M751.886 434.4C728.612 434.4 709.676 415.464 709.676 392.19V366.97C709.676 364.78 711.451 363.007 713.639 363.007C715.828 363.007 717.602 364.782 717.602 366.97V392.19C717.602 411.094 732.982 426.473 751.885 426.473C754.074 426.473 755.848 428.247 755.848 430.436C755.848 432.624 754.074 434.4 751.886 434.4Z" fill="#E0E0E0"/>
<path d="M678.563 389.173H748.717C753.524 389.173 757.029 384.621 755.797 379.973L749.712 356.999C748.861 353.787 745.954 351.549 742.632 351.549H684.648C681.324 351.549 678.418 353.785 677.568 356.999L671.483 379.973C670.251 384.619 673.755 389.173 678.563 389.173Z" fill="#F5F5F5"/>
<path d="M340.544 674.939H363.477V586.073H340.544V674.939Z" fill="#E6E6E6"/>
<path d="M278.369 674.939H354.478L365.972 570.928H289.863L278.369 674.939Z" fill="#F0F0F0"/>
<path d="M270.127 674.939H348.74L360.234 570.928H281.621L270.127 674.939Z" fill="#F5F5F5"/>
<path d="M343.062 666.743L352.743 579.125H287.3L277.619 666.743H343.062Z" fill="white"/>
<path d="M329.546 645.506L329.941 641.935C332.37 619.953 318.646 600.362 300.817 600.362L300.422 603.933C297.993 625.914 311.718 645.506 329.546 645.506Z" fill="#F5F5F5"/>
<path d="M227.6 775.29H295.217V674.94H227.6V775.29Z" fill="#E6E6E6"/>
<path d="M234.401 775.289H227.6V755.942H241.532L234.401 775.289Z" fill="#F0F0F0"/>
<path d="M417.109 775.29H484.727V674.94H417.109V775.29Z" fill="#E6E6E6"/>
<path d="M227.599 763.418H423.045V674.939H227.599V763.418Z" fill="#F0F0F0"/>
<path d="M416.245 775.289H423.046V755.942H409.113L416.245 775.289Z" fill="#F0F0F0"/>
<path d="M232.877 716.176H417.77V680.474H232.877V716.176Z" fill="#E6E6E6"/>
<path d="M312.992 703.749H337.652C348.364 703.749 358.605 699.345 365.971 691.569H284.672C292.04 699.345 302.281 703.749 312.992 703.749Z" fill="#F0F0F0"/>
<path d="M232.877 757.647H417.77V721.946H232.877V757.647Z" fill="#E6E6E6"/>
<path d="M312.992 745.221H337.652C348.364 745.221 358.605 740.816 365.971 733.041H284.672C292.04 740.816 302.281 745.221 312.992 745.221Z" fill="#F0F0F0"/>
<path d="M410.664 670.847H412.411C412.393 667.249 412.42 658.121 412.595 637.201C412.908 599.283 413.512 596.972 413.512 596.972L409.353 614.477C406.715 633.86 410.114 653.338 410.664 670.847Z" fill="#E6E6E6"/>
<path d="M407.211 611.868C401.225 604.734 388.435 602.658 375.34 600.881C370.199 600.184 388.85 611.932 397.966 620.277C405.047 626.758 409.576 628.55 411.52 635.01C412.533 626.953 412.369 618.015 407.211 611.868Z" fill="#E6E6E6"/>
<path d="M415.152 624.62C421.138 617.486 433.928 615.408 447.024 613.633C452.165 612.936 433.514 624.684 424.398 633.029C417.316 639.51 412.788 641.302 410.844 647.762C409.829 639.706 409.993 630.769 415.152 624.62Z" fill="#E6E6E6"/>
<path d="M412.59 595.294C417.077 586.767 428.372 578.738 441.046 575.692C446.021 574.496 429.52 591.438 423.248 602.364C418.376 610.851 411.914 620.82 410.91 627.982C409.394 613.794 408.102 603.822 412.59 595.294Z" fill="#E6E6E6"/>
<path d="M412.058 674.939C406.711 674.939 402.293 672.259 401.985 668.83L401.094 662.972H423.022L422.13 668.83C421.824 672.259 417.406 674.939 412.058 674.939Z" fill="#F0F0F0"/>
<path d="M424.443 665.226H399.675L398.965 658.698H425.151L424.443 665.226Z" fill="#F0F0F0"/>
<path d="M394.167 540.532H635.758V320.165H394.167V540.532Z" fill="#E6E6E6"/>
<path d="M388.731 540.532H633.396V320.165H388.731V540.532Z" fill="#F5F5F5"/>
<path d="M623.635 530.659V330.036L398.489 330.036V530.659H623.635Z" fill="#FAFAFA"/>
<path d="M596.01 530.66L507.397 330.037H477.299L565.912 530.66H596.01Z" fill="white"/>
<path d="M557.379 530.66L468.765 330.037H448.041L536.653 530.66H557.379Z" fill="white"/>
<path d="M482.09 530.661L482.09 330.037H470.447L470.447 530.661H482.09Z" fill="#E6E6E6"/>
<path d="M559.479 530.66V330.036H547.835V530.66H559.479Z" fill="#E6E6E6"/>
<path d="M479.988 536.924L479.988 322.697H465.272L465.272 536.924H479.988Z" fill="#F5F5F5"/>
<path d="M557.379 536.923V322.696H542.662V536.923H557.379Z" fill="#F5F5F5"/>
<path d="M399.525 530.659L399.525 330.036H398.489L398.489 530.659H399.525Z" fill="#E6E6E6"/>
<path d="M384.632 307.47H646.368C647.06 307.47 647.627 308.037 647.627 308.729C647.627 309.421 647.06 309.988 646.368 309.988H384.632C383.94 309.988 383.373 309.421 383.373 308.729C383.375 308.035 383.94 307.47 384.632 307.47Z" fill="#E6E6E6"/>
<path d="M635.758 315.776C636.693 315.776 637.458 315.011 637.458 314.076V310.427C637.458 309.492 636.693 308.728 635.758 308.728C634.823 308.728 634.059 309.492 634.059 310.427V314.076C634.059 315.011 634.823 315.776 635.758 315.776Z" fill="#E6E6E6"/>
<path d="M403.614 315.776C404.549 315.776 405.313 315.011 405.313 314.076V310.427C405.313 309.492 404.549 308.728 403.614 308.728C402.679 308.728 401.914 309.492 401.914 310.427V314.076C401.916 315.011 402.68 315.776 403.614 315.776Z" fill="#E6E6E6"/>
<path opacity="0.6" d="M385.035 481.3L629.521 481.3V308.729H385.035V481.3Z" fill="#E0E0E0"/>
<path d="M651.651 626.41H609.501C605.018 626.41 601.385 622.776 601.385 618.294V598.785C601.385 594.302 605.019 590.669 609.501 590.669H651.651C656.134 590.669 659.767 594.303 659.767 598.785V618.294C659.767 622.776 656.133 626.41 651.651 626.41Z" fill="#FAFAFA"/>
<path d="M657.042 591.72H604.11C602.605 591.72 601.385 590.5 601.385 588.995V586.79C601.385 585.285 602.605 584.065 604.11 584.065H657.042C658.547 584.065 659.767 585.285 659.767 586.79V588.995C659.767 590.5 658.547 591.72 657.042 591.72Z" fill="#E6E6E6"/>
<path d="M602.244 666.045C602.244 666.045 603.009 691.173 632.294 691.173C661.579 691.173 662.344 666.045 662.344 666.045H602.244Z" fill="#F0F0F0"/>
<path d="M669.021 666.045C669.021 666.045 669.786 691.173 699.071 691.173C728.357 691.173 729.121 666.045 729.121 666.045H669.021Z" fill="#F0F0F0"/>
<path d="M714.628 626.41H656.704C650.544 626.41 645.551 621.417 645.551 615.255V585.634C645.551 579.473 650.544 574.48 656.704 574.48H714.628C720.788 574.48 725.781 579.475 725.781 585.634V615.255C725.781 621.415 720.788 626.41 714.628 626.41Z" fill="#F0F0F0"/>
<path d="M722.037 575.926H649.295C647.228 575.926 645.551 574.249 645.551 572.181V569.152C645.551 567.084 647.228 565.407 649.295 565.407H722.037C724.104 565.407 725.781 567.084 725.781 569.152V572.181C725.781 574.25 724.106 575.926 722.037 575.926Z" fill="#F5F5F5"/>
<path d="M580.188 775.289H587.785V650.663H580.188V775.289Z" fill="#E6E6E6"/>
<path d="M799.634 626.41H758.48V650.663H799.634V626.41Z" fill="#E6E6E6"/>
<path d="M553.874 650.663H758.48V626.41H553.874V650.663Z" fill="#F5F5F5"/>
<path d="M799.634 691.173H758.48V715.426H799.634V691.173Z" fill="#E6E6E6"/>
<path d="M553.874 715.427H758.48V691.174H553.874V715.427Z" fill="#F5F5F5"/>
<path d="M784.795 775.289H792.393V650.663H784.795V775.289Z" fill="#E6E6E6"/>
<path d="M750.883 775.289H758.48V650.663H750.883V775.289Z" fill="#F5F5F5"/>
<path d="M553.873 775.289H561.471V650.663H553.873V775.289Z" fill="#F5F5F5"/>
<path d="M519.129 857.139C725.478 857.139 892.757 847.37 892.757 835.32C892.757 823.269 725.478 813.5 519.129 813.5C312.779 813.5 145.5 823.269 145.5 835.32C145.5 847.37 312.779 857.139 519.129 857.139Z" fill="#F5F5F5"/>
<path d="M467.056 732.945L350.994 732.408C337.035 732.344 325.769 720.979 325.828 707.019L327.059 416.05C327.118 402.083 338.491 390.81 352.457 390.875L468.518 391.411C482.478 391.476 493.742 402.842 493.683 416.799L492.452 707.769C492.395 721.736 481.023 733.01 467.056 732.945Z" fill="#455A64"/>
<path d="M468.351 401.452L445.849 401.348C442.831 401.335 440.374 403.882 440.361 407.035L440.342 411.117C440.33 414.272 437.872 416.818 434.854 416.804L390.992 416.602C387.975 416.588 385.539 414.019 385.552 410.864L385.569 406.782C385.582 403.627 383.147 401.058 380.129 401.044L372.214 401.007L352.52 400.916C342.739 400.871 334.774 408.766 334.732 418.547L333.531 702.554C333.49 712.331 341.38 720.291 351.155 720.336L466.986 720.871C476.767 720.916 484.731 713.021 484.774 703.24L485.974 419.232C486.016 409.457 478.127 401.498 468.351 401.452Z" fill="white"/>
<path d="M452.766 682.987L366.634 682.589C365.743 682.585 365.024 681.614 365.029 680.421L365.125 657.888C365.129 656.694 365.857 655.731 366.748 655.734L452.88 656.133C453.772 656.138 454.492 657.108 454.486 658.301L454.391 680.834C454.386 682.027 453.659 682.991 452.766 682.987Z" fill="#9A22C2"/>
<path d="M392.91 671.515C392.42 671.513 391.949 671.432 391.496 671.273C391.051 671.107 390.706 670.898 390.462 670.646L390.737 670.109C390.969 670.337 391.28 670.53 391.669 670.689C392.064 670.842 392.479 670.919 392.913 670.921C393.328 670.923 393.664 670.874 393.923 670.775C394.187 670.669 394.38 670.528 394.5 670.353C394.626 670.177 394.69 669.983 394.691 669.769C394.692 669.511 394.617 669.303 394.467 669.145C394.323 668.988 394.132 668.864 393.893 668.775C393.655 668.68 393.391 668.597 393.102 668.526C392.813 668.456 392.524 668.382 392.235 668.305C391.946 668.222 391.68 668.114 391.435 667.981C391.196 667.848 391.002 667.674 390.852 667.459C390.709 667.239 390.637 666.952 390.639 666.6C390.64 666.273 390.726 665.975 390.897 665.705C391.075 665.429 391.343 665.21 391.702 665.049C392.061 664.881 392.52 664.798 393.08 664.8C393.451 664.802 393.819 664.857 394.183 664.966C394.547 665.068 394.861 665.211 395.124 665.394L394.886 665.95C394.604 665.76 394.303 665.62 393.982 665.531C393.668 665.441 393.364 665.396 393.068 665.394C392.672 665.393 392.345 665.445 392.086 665.55C391.828 665.656 391.636 665.8 391.509 665.982C391.389 666.157 391.328 666.358 391.328 666.584C391.326 666.842 391.398 667.05 391.542 667.208C391.692 667.366 391.887 667.489 392.125 667.578C392.37 667.668 392.637 667.747 392.926 667.818C393.215 667.888 393.501 667.965 393.783 668.048C394.072 668.131 394.336 668.239 394.574 668.372C394.819 668.499 395.013 668.67 395.157 668.885C395.307 669.099 395.381 669.379 395.38 669.725C395.378 670.046 395.289 670.344 395.112 670.62C394.935 670.889 394.663 671.108 394.298 671.276C393.939 671.438 393.476 671.518 392.91 671.515ZM396.893 671.477L396.921 664.875L397.619 664.878L397.591 671.48L396.893 671.477ZM399.739 671.49L399.767 664.888L400.342 664.89L404.874 670.646L404.572 670.644L404.596 664.91L405.284 664.913L405.257 671.515L404.681 671.513L400.159 665.757L400.461 665.759L400.437 671.493L399.739 671.49ZM410.307 671.595C409.804 671.593 409.339 671.509 408.912 671.344C408.492 671.172 408.125 670.934 407.812 670.631C407.505 670.328 407.264 669.971 407.09 669.562C406.922 669.152 406.839 668.706 406.841 668.221C406.843 667.737 406.93 667.291 407.101 666.883C407.279 666.475 407.526 666.121 407.841 665.821C408.157 665.52 408.526 665.29 408.948 665.128C409.376 664.96 409.842 664.877 410.345 664.88C410.848 664.882 411.306 664.963 411.721 665.122C412.141 665.281 412.499 665.522 412.793 665.844L412.357 666.285C412.082 666.007 411.778 665.808 411.445 665.687C411.112 665.565 410.754 665.504 410.37 665.502C409.962 665.5 409.584 665.568 409.238 665.705C408.898 665.835 408.598 666.026 408.339 666.276C408.087 666.52 407.887 666.808 407.741 667.141C407.602 667.467 407.531 667.828 407.529 668.225C407.528 668.614 407.595 668.976 407.732 669.31C407.875 669.644 408.072 669.937 408.323 670.19C408.58 670.437 408.877 670.63 409.216 670.77C409.562 670.903 409.936 670.971 410.338 670.973C410.715 670.975 411.071 670.92 411.404 670.808C411.744 670.696 412.057 670.506 412.341 670.237L412.735 670.767C412.419 671.042 412.05 671.251 411.628 671.394C411.206 671.53 410.766 671.597 410.307 671.595ZM412.065 670.679L412.075 668.245L412.745 668.249L412.735 670.767L412.065 670.679ZM419.835 671.639C418.992 671.635 418.33 671.39 417.848 670.904C417.365 670.417 417.126 669.699 417.13 668.75L417.146 664.968L417.844 664.971L417.828 668.725C417.825 669.504 417.999 670.081 418.349 670.453C418.7 670.826 419.196 671.014 419.837 671.016C420.485 671.019 420.986 670.836 421.339 670.467C421.693 670.098 421.871 669.523 421.875 668.743L421.89 664.989L422.57 664.993L422.554 668.775C422.55 669.724 422.305 670.44 421.818 670.922C421.338 671.404 420.677 671.643 419.835 671.639ZM424.645 671.605L424.673 665.002L427.144 665.014C427.704 665.016 428.184 665.11 428.586 665.294C428.988 665.472 429.295 665.731 429.507 666.071C429.726 666.406 429.834 666.812 429.832 667.29C429.83 667.755 429.718 668.157 429.497 668.495C429.282 668.828 428.972 669.084 428.569 669.265C428.166 669.445 427.685 669.534 427.125 669.531L425.041 669.522L425.353 669.193L425.343 671.608L424.645 671.605ZM425.353 669.25L425.043 668.909L427.109 668.918C427.769 668.921 428.269 668.782 428.61 668.501C428.957 668.213 429.132 667.808 429.134 667.286C429.136 666.758 428.965 666.349 428.62 666.058C428.282 665.767 427.783 665.62 427.123 665.617L425.057 665.608L425.37 665.279L425.353 669.25Z" fill="#E8E8E3"/>
<path d="M383.795 484.915L353.912 484.777L353.887 490.261L383.77 490.398L383.795 484.915Z" fill="#9A22C2"/>
<path opacity="0.1" d="M383.795 484.915L353.912 484.777L353.887 490.261L383.77 490.398L383.795 484.915Z" fill="black"/>
<path d="M471.426 518.564C471.422 518.541 471.676 518.578 472.108 518.404C472.516 518.246 473.16 517.75 473.234 516.84C473.231 514.987 473.225 512.293 473.218 508.835C473.218 507.093 473.217 505.161 473.216 503.046C473.217 502.516 473.217 501.977 473.217 501.425C473.232 500.86 473.231 500.336 472.891 499.903C472.586 499.472 472.063 499.196 471.517 499.194C470.921 499.193 470.314 499.191 469.697 499.19C464.753 499.181 459.128 499.169 452.913 499.158C428.02 499.065 393.666 498.938 355.722 498.798C355.222 498.794 354.732 499.039 354.442 499.445C354.119 499.856 354.133 500.341 354.14 500.964C354.135 502.143 354.129 503.318 354.125 504.49C354.114 506.834 354.104 509.161 354.094 511.471C354.09 512.628 354.084 513.778 354.078 514.925C354.097 515.475 354.025 516.132 354.127 516.559C354.242 517.025 354.595 517.42 355.035 517.606C355.263 517.699 355.477 517.731 355.754 517.729L356.604 517.733L358.3 517.742C359.428 517.747 360.552 517.753 361.671 517.759C370.619 517.807 379.252 517.853 387.476 517.896C403.918 517.996 418.726 518.087 431.17 518.162C443.591 518.26 453.65 518.34 460.627 518.395C464.087 518.435 466.782 518.467 468.635 518.489C469.534 518.506 470.226 518.519 470.717 518.528C471.186 518.542 471.426 518.564 471.426 518.564C471.426 518.564 471.186 518.584 470.716 518.591C470.225 518.596 469.533 518.603 468.634 518.612C466.779 518.617 464.085 518.624 460.624 518.632C453.646 518.622 443.588 518.608 431.166 518.592C418.723 518.553 403.914 518.506 387.472 518.455C379.248 518.423 370.616 518.389 361.667 518.354C360.548 518.349 359.425 518.345 358.296 518.34L356.6 518.333L355.749 518.33C355.459 518.335 355.098 518.29 354.801 518.16C354.193 517.904 353.709 517.361 353.546 516.713C353.454 516.384 353.475 516.052 353.474 515.784L353.477 514.925C353.482 513.778 353.487 512.627 353.491 511.471C353.501 509.16 353.51 506.833 353.519 504.49C353.524 503.319 353.529 502.143 353.533 500.964C353.542 500.661 353.516 500.396 353.563 500.035C353.615 499.696 353.746 499.367 353.952 499.09C354.35 498.529 355.036 498.186 355.724 498.194C393.666 498.404 428.02 498.594 452.912 498.731C459.129 498.777 464.753 498.817 469.697 498.853C470.314 498.858 470.922 498.863 471.517 498.868C472.168 498.874 472.787 499.209 473.142 499.72C473.541 500.221 473.538 500.907 473.514 501.427C473.51 501.979 473.506 502.519 473.502 503.048C473.482 505.163 473.466 507.095 473.45 508.836C473.407 512.299 473.375 514.996 473.352 516.85C473.251 517.819 472.555 518.317 472.126 518.462C471.676 518.622 471.426 518.564 471.426 518.564Z" fill="#E0E0E0"/>
<path d="M416.596 506.12L361.932 505.868L361.908 510.994L416.572 511.245L416.596 506.12Z" fill="#9A22C2"/>
<path opacity="0.2" d="M416.596 506.12L361.932 505.868L361.908 510.994L416.572 511.245L416.596 506.12Z" fill="white"/>
<path d="M383.586 534.955L353.703 534.817L353.678 540.301L383.561 540.438L383.586 534.955Z" fill="#9A22C2"/>
<path opacity="0.1" d="M383.586 534.955L353.703 534.817L353.678 540.301L383.561 540.438L383.586 534.955Z" fill="black"/>
<path d="M470.659 568.601C470.656 568.581 470.903 568.603 471.348 568.471C471.769 568.333 472.449 567.984 472.82 567.155C473.019 566.746 473.038 566.25 473.021 565.681C473.019 565.117 473.016 564.501 473.014 563.835C473.012 562.498 473.008 560.958 473.005 559.229C473.005 557.494 473.003 555.567 473.003 553.461C473.003 552.933 473.003 552.395 473.003 551.845C473.029 551.29 472.962 550.775 472.664 550.312C472.385 549.856 471.931 549.495 471.401 549.333C470.882 549.168 470.26 549.258 469.645 549.233C464.718 549.224 459.113 549.212 452.917 549.201C428.111 549.109 393.876 548.981 356.064 548.842C355.014 548.816 354.044 549.673 353.943 550.711C353.908 551.816 353.924 553.038 353.912 554.19C353.902 556.525 353.891 558.845 353.882 561.147C353.878 562.299 353.872 563.447 353.867 564.589C353.887 565.16 353.806 565.756 353.94 566.211C354.072 566.692 354.378 567.121 354.789 567.402C355.215 567.689 355.676 567.795 356.234 567.774L357.925 567.782C359.05 567.788 360.169 567.794 361.284 567.8C370.202 567.846 378.805 567.893 386.999 567.936C403.385 568.036 418.141 568.126 430.542 568.202C442.919 568.299 452.943 568.378 459.896 568.433C463.345 568.474 466.029 568.505 467.877 568.527C468.773 568.545 469.462 568.557 469.952 568.567C470.419 568.579 470.659 568.601 470.659 568.601C470.659 568.601 470.419 568.621 469.951 568.628C469.462 568.633 468.771 568.64 467.876 568.649C466.029 568.654 463.344 568.661 459.895 568.67C452.943 568.661 442.918 568.647 430.539 568.631C418.138 568.592 403.382 568.546 386.997 568.495C378.801 568.462 370.199 568.428 361.282 568.393C360.166 568.389 359.047 568.384 357.922 568.38L356.232 568.373C355.664 568.403 354.965 568.266 354.452 567.898C353.925 567.538 353.532 566.989 353.363 566.37C353.19 565.72 353.293 565.154 353.268 564.587C353.272 563.445 353.276 562.296 353.28 561.145C353.29 558.842 353.3 556.523 353.308 554.187C353.322 553.004 353.299 551.881 353.342 550.639C353.471 549.302 354.719 548.201 356.067 548.235C393.878 548.444 428.112 548.634 452.918 548.771C459.113 548.816 464.717 548.857 469.645 548.894C470.253 548.927 470.868 548.828 471.496 549.021C472.104 549.21 472.617 549.626 472.93 550.147C473.264 550.657 473.336 551.309 473.302 551.845C473.297 552.395 473.294 552.933 473.289 553.462C473.271 555.569 473.253 557.495 473.238 559.23C473.22 560.96 473.205 562.499 473.191 563.836C473.182 564.502 473.175 565.118 473.17 565.681C473.18 566.236 473.146 566.785 472.929 567.205C472.52 568.068 471.802 568.407 471.363 568.531C470.903 568.646 470.659 568.601 470.659 568.601Z" fill="#E0E0E0"/>
<path d="M383.36 587.15L353.477 587.013L353.451 592.496L383.335 592.634L383.36 587.15Z" fill="#9A22C2"/>
<path opacity="0.1" d="M383.36 587.15L353.477 587.013L353.451 592.496L383.335 592.634L383.36 587.15Z" fill="black"/>
<path d="M470.437 620.79C470.436 620.769 470.683 620.791 471.126 620.661C471.549 620.523 472.228 620.173 472.599 619.343C472.797 618.934 472.817 618.438 472.8 617.87C472.797 617.305 472.795 616.689 472.793 616.023C472.79 614.686 472.788 613.146 472.785 611.417C472.783 609.682 472.783 607.756 472.782 605.648C472.782 605.121 472.783 604.582 472.783 604.031C472.808 603.476 472.742 602.962 472.444 602.499C472.164 602.043 471.711 601.682 471.181 601.519C470.662 601.355 470.04 601.445 469.424 601.419C464.498 601.409 458.892 601.398 452.697 601.387C427.89 601.295 393.656 601.168 355.844 601.028C354.793 601.002 353.824 601.859 353.723 602.897C353.688 604.002 353.704 605.224 353.694 606.376C353.683 608.711 353.673 611.031 353.663 613.333C353.659 614.485 353.653 615.631 353.648 616.775C353.668 617.345 353.586 617.941 353.72 618.397C353.852 618.878 354.158 619.307 354.569 619.588C354.995 619.875 355.456 619.982 356.014 619.96L357.705 619.968C358.83 619.974 359.949 619.98 361.064 619.986C369.981 620.033 378.584 620.079 386.779 620.122C403.165 620.223 417.921 620.312 430.322 620.388C442.699 620.485 452.723 620.564 459.676 620.619C463.125 620.66 465.81 620.692 467.657 620.713C468.553 620.731 469.243 620.742 469.732 620.753C470.198 620.769 470.437 620.79 470.437 620.79C470.437 620.79 470.198 620.81 469.731 620.817C469.241 620.821 468.551 620.828 467.656 620.838C465.808 620.842 463.123 620.849 459.674 620.858C452.722 620.848 442.698 620.835 430.318 620.819C417.917 620.781 403.161 620.734 386.776 620.683C378.58 620.65 369.978 620.617 361.061 620.582C359.945 620.577 358.826 620.571 357.701 620.567L356.011 620.56C355.442 620.59 354.744 620.452 354.23 620.086C353.704 619.724 353.311 619.176 353.142 618.558C352.97 617.907 353.072 617.34 353.046 616.774C353.051 615.632 353.056 614.484 353.06 613.333C353.07 611.03 353.079 608.71 353.088 606.375C353.102 605.193 353.079 604.071 353.122 602.828C353.251 601.49 354.499 600.39 355.847 600.425C393.658 600.634 427.891 600.823 452.698 600.96C458.892 601.006 464.497 601.046 469.425 601.082C470.033 601.114 470.648 601.016 471.276 601.209C471.883 601.398 472.395 601.814 472.71 602.336C473.044 602.846 473.116 603.498 473.082 604.035C473.077 604.585 473.073 605.123 473.068 605.65C473.05 607.758 473.033 609.685 473.018 611.418C473 613.149 472.985 614.688 472.971 616.026C472.962 616.69 472.954 617.307 472.947 617.871C472.958 618.426 472.924 618.975 472.707 619.394C472.298 620.257 471.58 620.597 471.142 620.72C470.683 620.833 470.437 620.79 470.437 620.79Z" fill="#E0E0E0"/>
<path d="M416.388 556.161L361.723 555.909L361.699 561.035L416.364 561.286L416.388 556.161Z" fill="#9A22C2"/>
<path opacity="0.2" d="M416.388 556.161L361.723 555.909L361.699 561.035L416.364 561.286L416.388 556.161Z" fill="white"/>
<path d="M366.68 611.304C366.674 612.711 365.599 613.848 364.279 613.842C362.959 613.835 361.895 612.689 361.9 611.282C361.906 609.875 362.981 608.737 364.301 608.744C365.621 608.75 366.686 609.896 366.68 611.304Z" fill="#9A22C2"/>
<path d="M374.084 611.339C374.078 612.746 373.003 613.883 371.683 613.877C370.363 613.871 369.299 612.725 369.305 611.317C369.311 609.91 370.385 608.774 371.705 608.779C373.025 608.784 374.09 609.931 374.084 611.339Z" fill="#9A22C2"/>
<path d="M381.488 611.372C381.483 612.78 380.408 613.917 379.088 613.91C377.768 613.904 376.703 612.759 376.709 611.35C376.715 609.943 377.79 608.807 379.11 608.813C380.429 608.818 381.494 609.964 381.488 611.372Z" fill="#9A22C2"/>
<path d="M388.893 611.407C388.888 612.814 387.813 613.951 386.494 613.944C385.174 613.939 384.108 612.793 384.115 611.384C384.121 609.977 385.196 608.841 386.516 608.847C387.835 608.854 388.9 609.999 388.893 611.407Z" fill="#9A22C2"/>
<path d="M396.298 611.441C396.292 612.849 395.217 613.986 393.897 613.979C392.577 613.973 391.512 612.827 391.518 611.42C391.525 610.012 392.599 608.875 393.918 608.881C395.238 608.888 396.303 610.034 396.298 611.441Z" fill="#9A22C2"/>
<path d="M403.703 611.476C403.697 612.884 402.622 614.021 401.302 614.014C399.982 614.008 398.918 612.862 398.924 611.455C398.93 610.047 400.005 608.911 401.323 608.916C402.645 608.922 403.709 610.069 403.703 611.476Z" fill="#9A22C2"/>
<path d="M411.113 611.508C411.106 612.916 410.032 614.053 408.713 614.047C407.393 614.04 406.328 612.894 406.334 611.487C406.34 610.079 407.415 608.943 408.734 608.949C410.052 608.955 411.118 610.101 411.113 611.508Z" fill="#9A22C2"/>
<path d="M418.516 611.543C418.511 612.951 417.436 614.088 416.117 614.082C414.797 614.075 413.731 612.931 413.738 611.522C413.744 610.115 414.819 608.979 416.138 608.984C417.458 608.99 418.522 610.136 418.516 611.543Z" fill="#9A22C2"/>
<path d="M425.922 611.578C425.916 612.986 424.841 614.122 423.522 614.116C422.202 614.11 421.137 612.965 421.143 611.556C421.15 610.149 422.224 609.014 423.543 609.019C424.863 609.023 425.928 610.17 425.922 611.578Z" fill="#9A22C2"/>
<g opacity="0.2">
<path d="M366.68 611.304C366.674 612.711 365.599 613.848 364.279 613.842C362.959 613.835 361.895 612.689 361.9 611.282C361.906 609.875 362.981 608.737 364.301 608.744C365.621 608.75 366.686 609.896 366.68 611.304Z" fill="white"/>
<path d="M374.084 611.339C374.078 612.746 373.003 613.883 371.683 613.877C370.363 613.871 369.299 612.725 369.305 611.317C369.311 609.91 370.385 608.774 371.705 608.779C373.025 608.784 374.09 609.931 374.084 611.339Z" fill="white"/>
<path d="M381.488 611.372C381.483 612.78 380.408 613.917 379.088 613.91C377.768 613.904 376.703 612.759 376.709 611.35C376.715 609.943 377.79 608.807 379.11 608.813C380.429 608.818 381.494 609.964 381.488 611.372Z" fill="white"/>
<path d="M388.893 611.407C388.888 612.814 387.813 613.951 386.494 613.944C385.174 613.939 384.108 612.793 384.115 611.384C384.121 609.977 385.196 608.841 386.516 608.847C387.835 608.854 388.9 609.999 388.893 611.407Z" fill="white"/>
<path d="M396.298 611.441C396.292 612.849 395.217 613.986 393.897 613.979C392.577 613.973 391.512 612.827 391.518 611.42C391.525 610.012 392.599 608.875 393.918 608.881C395.238 608.888 396.303 610.034 396.298 611.441Z" fill="white"/>
<path d="M403.703 611.476C403.697 612.884 402.622 614.021 401.302 614.014C399.982 614.008 398.918 612.862 398.924 611.455C398.93 610.047 400.005 608.911 401.323 608.916C402.645 608.922 403.709 610.069 403.703 611.476Z" fill="white"/>
<path d="M411.113 611.508C411.106 612.916 410.032 614.053 408.713 614.047C407.393 614.04 406.328 612.894 406.334 611.487C406.34 610.079 407.415 608.943 408.734 608.949C410.052 608.955 411.118 610.101 411.113 611.508Z" fill="white"/>
<path d="M418.516 611.543C418.511 612.951 417.436 614.088 416.117 614.082C414.797 614.075 413.731 612.931 413.738 611.522C413.744 610.115 414.819 608.979 416.138 608.984C417.458 608.99 418.522 610.136 418.516 611.543Z" fill="white"/>
<path d="M425.922 611.578C425.916 612.986 424.841 614.122 423.522 614.116C422.202 614.11 421.137 612.965 421.143 611.556C421.15 610.149 422.224 609.014 423.543 609.019C424.863 609.023 425.928 610.17 425.922 611.578Z" fill="white"/>
</g>
<path d="M415.403 443.825C416.967 443.169 418.079 441.557 418.089 439.657C418.099 437.168 416.215 435.142 413.881 435.13C411.548 435.119 409.647 437.129 409.637 439.618C409.629 441.535 410.749 443.167 412.33 443.825C405.826 444.805 406.121 451.873 406.121 451.873L421.499 451.944C421.499 451.944 421.85 444.799 415.403 443.825Z" fill="#9A22C2"/>
<path opacity="0.1" d="M415.403 443.825C416.967 443.169 418.079 441.557 418.089 439.657C418.099 437.168 416.215 435.142 413.881 435.13C411.548 435.119 409.647 437.129 409.637 439.618C409.629 441.535 410.749 443.167 412.33 443.825C405.826 444.805 406.121 451.873 406.121 451.873L421.499 451.944C421.499 451.944 421.85 444.799 415.403 443.825Z" fill="black"/>
<path d="M440.401 456.567L385.562 456.314L385.532 462.872L440.371 463.124L440.401 456.567Z" fill="#9A22C2"/>
<path opacity="0.2" d="M440.401 456.567L385.562 456.314L385.532 462.872L440.371 463.124L440.401 456.567Z" fill="white"/>
<path d="M295.378 815.474V805.532L277.564 805.412L277.416 820.431L278.52 820.513C283.434 820.831 303.527 821.293 306.819 820.274C310.492 819.139 295.378 815.474 295.378 815.474Z" fill="#9A22C2"/>
<path d="M307.243 819.342C307.243 819.511 300.579 819.645 292.361 819.645C284.14 819.645 277.479 819.511 277.479 819.342C277.479 819.175 284.14 819.04 292.361 819.04C300.579 819.041 307.243 819.176 307.243 819.342Z" fill="#263238"/>
<path d="M295.69 817.502C295.544 817.426 295.669 816.9 296.052 816.382C296.433 815.863 296.899 815.586 297.015 815.704C297.135 815.823 296.891 816.26 296.539 816.741C296.186 817.219 295.84 817.582 295.69 817.502Z" fill="#263238"/>
<path d="M296.829 818.158C296.674 818.1 296.755 817.511 297.104 816.891C297.453 816.27 297.917 815.898 298.046 815.999C298.179 816.103 297.955 816.61 297.631 817.188C297.307 817.764 296.988 818.219 296.829 818.158Z" fill="#263238"/>
<path d="M282.847 819.297C282.778 819.346 282.513 819.085 282.127 818.648C281.739 818.214 281.231 817.601 280.564 817.083C279.903 816.567 279.174 816.308 278.636 816.24C278.095 816.167 277.739 816.252 277.709 816.165C277.678 816.1 278.009 815.851 278.651 815.812C279.284 815.769 280.177 816.01 280.934 816.603C281.685 817.189 282.167 817.889 282.472 818.396C282.777 818.907 282.914 819.251 282.847 819.297Z" fill="#263238"/>
<path d="M295.747 815.634C295.834 815.775 295.529 816.12 295.02 816.306C294.512 816.494 294.054 816.428 294.031 816.265C294.004 816.098 294.365 815.904 294.81 815.739C295.257 815.575 295.659 815.49 295.747 815.634Z" fill="#263238"/>
<path d="M295.466 814.673C295.482 814.841 295.007 814.983 294.406 814.99C293.804 814.999 293.325 814.87 293.338 814.702C293.35 814.535 293.824 814.393 294.398 814.385C294.971 814.378 295.449 814.507 295.466 814.673Z" fill="#263238"/>
<path d="M339.248 815.473L339.249 805.531L321.435 805.411L321.287 820.278L322.391 820.359C327.305 820.676 347.398 821.292 350.692 820.273C354.363 819.138 339.248 815.473 339.248 815.473Z" fill="#9A22C2"/>
<path d="M351.11 819.364C351.11 819.53 344.447 819.667 336.229 819.667C328.007 819.667 321.346 819.531 321.346 819.364C321.346 819.197 328.007 819.061 336.229 819.061C344.446 819.061 351.11 819.197 351.11 819.364Z" fill="#263238"/>
<path d="M339.563 817.501C339.417 817.425 339.542 816.899 339.926 816.381C340.307 815.862 340.773 815.585 340.889 815.703C341.009 815.822 340.765 816.259 340.413 816.74C340.059 817.218 339.712 817.581 339.563 817.501Z" fill="#263238"/>
<path d="M340.694 818.158C340.54 818.1 340.62 817.511 340.97 816.891C341.318 816.27 341.782 815.898 341.911 815.999C342.044 816.103 341.82 816.61 341.497 817.188C341.172 817.764 340.852 818.219 340.694 818.158Z" fill="#263238"/>
<path d="M326.717 819.296C326.647 819.345 326.382 819.084 325.996 818.647C325.609 818.213 325.1 817.6 324.433 817.082C323.772 816.566 323.045 816.307 322.505 816.239C321.964 816.166 321.608 816.251 321.578 816.164C321.547 816.099 321.878 815.85 322.519 815.812C323.152 815.769 324.046 816.009 324.802 816.602C325.555 817.188 326.033 817.888 326.34 818.395C326.647 818.906 326.784 819.25 326.717 819.296Z" fill="#263238"/>
<path d="M339.614 815.633C339.701 815.774 339.396 816.119 338.888 816.305C338.379 816.493 337.922 816.427 337.898 816.264C337.871 816.097 338.233 815.903 338.678 815.738C339.124 815.574 339.526 815.489 339.614 815.633Z" fill="#263238"/>
<path d="M339.335 814.672C339.351 814.84 338.876 814.982 338.275 814.989C337.673 814.998 337.196 814.869 337.207 814.701C337.219 814.534 337.694 814.392 338.268 814.384C338.841 814.377 339.319 814.506 339.335 814.672Z" fill="#263238"/>
<path d="M404.873 520.446C404.408 519.967 403.265 520.193 403.265 520.193C403.265 520.193 403.465 518.834 403.253 518.178C403.043 517.521 401.579 517.648 401.579 517.648C401.579 517.648 401.488 517.016 401.616 515.996C401.649 515.74 401.507 515.552 401.276 515.411C400.582 514.992 399.086 515.012 399.086 515.012C398.189 514.37 401.819 509.294 403.165 507.67C404.495 506.065 404.271 504.779 403.071 504.781C402.253 504.782 398.015 509.662 396.722 511.3C395.429 512.937 391.962 517.494 391.845 513.858C391.726 510.222 390.266 507.471 389.352 507.003C388.439 506.535 387.454 507.634 387.959 508.644C388.368 509.459 388.626 511.032 388.772 512.22C388.893 513.201 388.853 514.196 388.639 515.159C388.032 517.883 387.38 519.651 387.075 520.408L386.985 520.358C386.985 520.358 361.622 544.677 359.794 546.413C358.149 547.975 325.192 544.566 318.59 543.865C316.785 543.663 314.113 543.3 311.797 543.403C308.933 543.528 308.424 543.935 305.557 543.973C296.779 544.091 289.464 544.945 284.02 545.866C277.439 546.979 272.043 551.664 270.006 558.022C263.341 578.818 248.266 628.053 245.579 655.713C243.463 659.692 241.098 664.339 240.137 666.953C238.27 672.037 238.723 672.21 239.353 672.328C241.043 672.64 242.976 663.51 243.698 665.714C244.421 667.918 240.035 676.605 241.814 676.859C244.134 677.191 245.982 667.596 246.198 666.795C246.409 666.018 247.579 666.281 247.345 666.993C247.008 668.017 243.739 678.858 246.014 679.206C247.274 679.398 247.41 677.101 247.41 677.101C247.41 677.101 249.723 666.733 250.791 666.933C251.876 667.136 250.723 673.269 250.188 675.309C249.659 677.325 250.404 678.397 251.491 677.89C252.233 677.544 254.019 671.332 254.5 669.302C254.982 667.272 256.203 661.679 257.844 664.926C259.485 668.172 261.968 670.05 262.994 670.091C264.019 670.13 264.449 668.719 263.565 668.016C262.85 667.448 261.953 666.132 261.318 665.115C260.796 664.277 260.412 663.358 260.201 662.394C259.384 658.675 259.391 656.513 259.391 656.513L259.201 655.318C261.803 642.428 269.304 604.611 280.078 580.451L284.514 589.581L286.44 596.339L274.616 625.55L325.062 624.886L317.542 595.906L326.679 565.689H326.677C336.566 565.909 361.964 566.278 366.232 564.37C371.553 561.992 399.091 527.279 399.091 527.279H399.09C400.95 525.797 402.842 524.204 404.237 522.813C404.24 522.811 405.882 521.483 404.873 520.446Z" fill="#FFBE9D"/>
<path d="M272.423 604.042C273.884 599.047 281.404 574.345 281.404 574.345C281.404 574.345 285.095 594.484 284.125 596.909C283.007 599.703 280.952 602.901 280.952 602.901C272.423 615.891 273.542 622.383 273.542 622.383L325.065 620.812C325.191 613.607 320.925 596.854 320.034 594.185C319.141 591.516 322.1 582.756 322.1 582.756C322.1 582.756 327.923 576.842 327.697 573.799C327.243 567.668 326.682 565.688 326.682 565.688L358.032 566.842L357.047 545.569L311.981 541.06C310.422 545.497 296.23 543.323 296.23 543.323C280.909 543.826 279.982 546.644 273.592 551.591C267.204 556.537 256.682 599.022 256.682 599.022L272.423 604.042Z" fill="#9A22C2"/>
<path d="M302.897 599.018C302.896 599.098 301.859 599.167 300.181 599.155C298.504 599.145 296.186 599.04 293.639 598.786C291.091 598.528 288.799 598.169 287.153 597.845C285.507 597.522 284.505 597.248 284.52 597.169C284.536 597.085 285.564 597.209 287.221 597.423C288.878 597.638 291.165 597.928 293.699 598.183C296.233 598.437 298.531 598.608 300.197 598.728C301.865 598.849 302.898 598.931 302.897 599.018Z" fill="#263238"/>
<path d="M306.418 594.637C306.44 594.711 305.377 595.115 303.605 595.596C301.834 596.076 299.346 596.607 296.562 596.939C293.776 597.268 291.233 597.336 289.398 597.283C287.562 597.231 286.435 597.085 286.439 597.01C286.443 596.92 287.575 596.912 289.397 596.855C291.219 596.798 293.731 596.665 296.49 596.338C299.246 596.009 301.721 595.55 303.506 595.18C305.291 594.808 306.393 594.55 306.418 594.637Z" fill="#263238"/>
<path d="M323.751 575.09C323.832 575.108 323.699 576.111 323.399 577.719C323.099 579.326 322.629 581.533 322.035 583.955C321.44 586.378 320.837 588.554 320.359 590.117C319.882 591.681 319.536 592.633 319.455 592.611C319.374 592.587 319.575 591.596 319.946 590.007C320.385 588.193 320.891 586.11 321.447 583.812C322.016 581.517 322.532 579.438 322.982 577.627C323.388 576.044 323.669 575.073 323.751 575.09Z" fill="#263238"/>
<path d="M272.962 601.082C272.918 601.244 269.365 600.415 265.026 599.231C260.686 598.046 257.204 596.957 257.248 596.795C257.293 596.633 260.845 597.463 265.185 598.647C269.524 599.831 273.006 600.922 272.962 601.082Z" fill="#263238"/>
<path d="M327.25 565.416C327.25 565.444 326.772 565.494 325.916 565.409C325.064 565.322 323.817 565.123 322.373 564.564C320.927 564.023 319.284 563.117 317.749 561.749C316.214 560.385 314.842 558.51 313.967 556.303C313.078 554.098 312.786 551.799 312.926 549.753C313.061 547.71 313.602 545.864 314.517 544.571C315.422 543.26 316.622 542.625 317.458 542.406C317.88 542.293 318.222 542.266 318.45 542.272C318.679 542.278 318.796 542.304 318.796 542.322C318.798 542.379 318.314 542.352 317.528 542.63C316.757 542.907 315.672 543.559 314.872 544.81C313.291 547.297 312.849 551.837 314.53 556.08C315.373 558.202 316.669 560.003 318.126 561.337C319.582 562.677 321.148 563.591 322.533 564.168C325.324 565.325 327.271 565.287 327.25 565.416Z" fill="#263238"/>
<path d="M354.335 566.416C354.169 566.416 354.042 561.621 354.053 555.708C354.065 549.792 354.21 545 354.377 545C354.544 545.001 354.669 549.794 354.658 555.709C354.647 561.622 354.502 566.417 354.335 566.416Z" fill="#263238"/>
<path d="M311.702 542.355C311.828 539.761 312.1 536.832 312.1 536.832C312.1 536.832 318.512 536.125 318.901 529.5C319.291 522.876 318.901 507.601 318.901 507.601L307.222 501.654L294.375 511.793L296.321 544.911L308.142 545.663C310.006 545.781 311.606 544.296 311.702 542.355Z" fill="#FFBE9D"/>
<path d="M312.854 524.262C312.873 524.267 312.874 524.387 312.753 524.547C312.634 524.703 312.375 524.879 312.015 524.872C311.27 524.836 310.554 524.014 310.291 523.01C310.158 522.499 310.159 521.982 310.259 521.537C310.338 521.099 310.592 520.659 310.957 520.539C311.131 520.474 311.312 520.481 311.45 520.551C311.586 520.619 311.67 520.723 311.713 520.818C311.8 521.016 311.733 521.135 311.715 521.126C311.689 521.125 311.696 521.016 311.598 520.891C311.506 520.765 311.288 520.65 311.046 520.775C310.8 520.887 310.631 521.201 310.568 521.605C310.495 522.004 310.505 522.463 310.622 522.918C310.854 523.817 311.478 524.554 312.033 524.62C312.307 524.655 312.535 524.549 312.658 524.449C312.786 524.345 312.83 524.251 312.854 524.262Z" fill="#EB996E"/>
<path d="M322.882 504.026C321.99 500.977 318.748 499.461 315.794 498.625C311.3 497.351 306.433 496.788 302.043 498.404C297.653 500.02 292.373 502.864 292.374 507.714C289.783 507.5 288.302 509.771 287.274 512.584C286.666 514.246 286.266 516.095 286.172 517.928L286.129 517.914C285.796 524.262 284.027 533.008 279.911 537.704C277.639 540.296 274.366 542.087 273.042 545.316C271.89 548.122 272.486 551.439 271.397 554.272C270.436 556.772 268.309 558.548 266.783 560.723C263.461 565.462 263.234 572.156 265.676 577.444C268.117 582.733 272.954 586.602 278.324 588.375C283.694 590.149 289.543 589.953 295.008 588.531C299.043 587.481 302.968 585.742 306.183 582.994C309.398 580.246 311.865 576.426 312.601 572.162C313.419 567.415 312.091 562.595 311.113 557.881C308.022 542.967 308.906 542.192 312.806 528.357C312.895 528.113 312.949 527.858 313.017 527.607C313.068 527.424 313.118 527.248 313.17 527.06L313.162 527.058C313.271 526.516 313.342 525.965 313.344 525.403C312.215 525.848 310.851 525.552 309.984 524.676C309.118 523.799 308.795 522.386 309.189 521.198C309.642 519.83 310.897 518.917 312.186 518.374C313.475 517.831 314.861 517.563 316.126 516.962C318.809 515.685 320.67 513.036 321.935 510.26C322.824 508.313 323.485 506.085 322.882 504.026Z" fill="#263238"/>
<path d="M313.316 524.543C313.356 524.526 313.582 524.958 313.927 525.692C314.272 526.425 314.734 527.46 315.249 528.65L315.346 528.875L315.099 528.896C314.712 528.93 314.321 528.964 313.916 528.999C313.105 529.051 312.429 529.148 311.643 529.14C311.519 529.118 311.381 529.004 311.344 528.877C311.302 528.751 311.313 528.645 311.326 528.554C311.36 528.371 311.401 528.236 311.435 528.082L311.641 527.259C311.898 526.255 312.082 525.639 312.13 525.651C312.179 525.662 312.084 526.298 311.891 527.315L311.729 528.146C311.67 528.427 311.568 528.846 311.719 528.814C312.298 528.789 313.122 528.693 313.886 528.636C314.291 528.604 314.682 528.573 315.069 528.542L314.92 528.788C314.423 527.593 314.001 526.539 313.713 525.781C313.428 525.025 313.275 524.561 313.316 524.543Z" fill="#9A22C2"/>
<path d="M273.538 622.384L325.061 620.812L347.47 708.356L343.343 808.775H316.072L319.451 710.494L299.52 649.552L302.591 812.669L275.059 813.076L272.159 659.752C272.038 655.491 270.635 645.877 271.157 641.649L273.538 622.384Z" fill="#263238"/>
<path d="M306.383 650.789C306.372 650.87 305.406 650.822 303.855 650.639C302.305 650.457 300.173 650.129 297.837 649.661C295.502 649.19 293.409 648.668 291.909 648.235C290.409 647.803 289.499 647.476 289.52 647.396C289.566 647.228 293.307 648.135 297.957 649.067C302.604 650.007 306.405 650.616 306.383 650.789Z" fill="#455A64"/>
<path d="M343.097 803.269C343.097 803.437 336.922 803.572 329.309 803.572C321.692 803.572 315.52 803.437 315.52 803.269C315.52 803.103 321.692 802.967 329.309 802.967C336.922 802.968 343.097 803.103 343.097 803.269Z" fill="#455A64"/>
<path d="M302.347 808.431C302.347 808.6 296.358 808.734 288.97 808.734C281.581 808.734 275.592 808.6 275.592 808.431C275.592 808.264 281.581 808.129 288.97 808.129C296.358 808.129 302.347 808.264 302.347 808.431Z" fill="#455A64"/>
<path d="M298.799 808.013C298.632 808.015 297.908 772.372 297.182 728.412C296.455 684.436 296.002 648.795 296.17 648.793C296.337 648.791 297.061 684.426 297.787 728.402C298.513 772.362 298.966 808.009 298.799 808.013Z" fill="#455A64"/>
<path d="M339.434 803.267C339.424 803.267 339.42 803.105 339.421 802.792C339.427 802.45 339.437 801.989 339.447 801.4C339.483 800.144 339.535 798.348 339.602 796.051C339.764 791.373 339.997 784.659 340.285 776.377C340.92 759.74 341.798 736.808 342.767 711.479C342.776 711.245 342.785 711.012 342.794 710.796L342.803 710.882C336.697 686.43 331.177 664.329 327.175 648.305C325.211 640.323 323.621 633.855 322.512 629.349C321.98 627.134 321.565 625.402 321.275 624.191C321.144 623.622 321.043 623.177 320.968 622.846C320.902 622.542 320.872 622.386 320.883 622.384C320.892 622.381 320.941 622.534 321.027 622.832C321.116 623.159 321.237 623.6 321.392 624.163C321.709 625.368 322.161 627.091 322.74 629.294C323.893 633.788 325.546 640.239 327.588 648.202C331.634 664.215 337.215 686.301 343.389 710.735L343.399 710.777L343.398 710.821C343.39 711.036 343.379 711.27 343.371 711.505C342.333 736.83 341.393 759.758 340.711 776.394C340.343 784.673 340.044 791.383 339.836 796.06C339.72 798.356 339.631 800.15 339.568 801.406C339.532 801.994 339.504 802.454 339.483 802.796C339.461 803.109 339.445 803.268 339.434 803.267Z" fill="#455A64"/>
<path d="M330.545 708.755C330.573 708.92 327.876 709.519 324.52 710.095C322.015 710.527 319.851 710.822 318.907 710.875L318.905 710.639C319.219 710.725 319.388 710.793 319.381 710.835C319.375 710.876 319.192 710.889 318.868 710.875L318.164 710.845L318.867 710.639C319.776 710.373 321.914 709.93 324.419 709.501C327.773 708.923 330.516 708.588 330.545 708.755Z" fill="#455A64"/>
<path d="M330.025 712.094C330.002 712.263 327.581 712.076 324.601 711.847C321.62 711.612 319.2 711.422 319.203 711.251C319.207 711.086 321.648 711.007 324.648 711.243C327.646 711.474 330.047 711.932 330.025 712.094Z" fill="#455A64"/>
<path opacity="0.2" d="M273.309 624.234C274.554 625.987 276.331 626.602 278.396 626.94C280.46 627.278 282.566 627.053 284.644 626.821C297.943 625.346 312.036 623.985 325.061 620.812C308.201 621.756 290.397 621.438 273.537 622.383C273.537 622.383 273.393 623.542 273.36 623.821" fill="black"/>
<g opacity="0.2">
<path d="M290.688 647.997L300.186 684.871L299.521 649.551L290.688 647.997Z" fill="black"/>
</g>
</svg>
