<svg width="149" height="62" viewBox="0 0 149 62" fill="none" xmlns="http://www.w3.org/2000/svg">
<path d="M78.616 19.44C78.3373 18.9267 77.934 18.538 77.406 18.274C76.8927 17.9953 76.284 17.856 75.58 17.856C74.3627 17.856 73.3873 18.2593 72.654 19.066C71.9207 19.858 71.554 20.9213 71.554 22.256C71.554 23.6787 71.9353 24.7933 72.698 25.6C73.4753 26.392 74.5387 26.788 75.888 26.788C76.812 26.788 77.5893 26.5533 78.22 26.084C78.8653 25.6147 79.3347 24.94 79.628 24.06H74.854V21.288H83.038V24.786C82.7593 25.7247 82.2827 26.5973 81.608 27.404C80.948 28.2107 80.1047 28.8633 79.078 29.362C78.0513 29.8607 76.8927 30.11 75.602 30.11C74.0767 30.11 72.7127 29.78 71.51 29.12C70.322 28.4453 69.3907 27.514 68.716 26.326C68.056 25.138 67.726 23.7813 67.726 22.256C67.726 20.7307 68.056 19.374 68.716 18.186C69.3907 16.9833 70.322 16.052 71.51 15.392C72.698 14.7173 74.0547 14.38 75.58 14.38C77.428 14.38 78.9827 14.8273 80.244 15.722C81.52 16.6167 82.3633 17.856 82.774 19.44H78.616ZM96.6938 23.664C96.6938 24.016 96.6718 24.3827 96.6278 24.764H88.1138C88.1725 25.5267 88.4145 26.1133 88.8398 26.524C89.2798 26.92 89.8151 27.118 90.4458 27.118C91.3845 27.118 92.0371 26.722 92.4038 25.93H96.4078C96.2025 26.7367 95.8285 27.4627 95.2858 28.108C94.7578 28.7533 94.0905 29.2593 93.2838 29.626C92.4771 29.9927 91.5751 30.176 90.5778 30.176C89.3751 30.176 88.3045 29.9193 87.3658 29.406C86.4271 28.8927 85.6938 28.1593 85.1658 27.206C84.6378 26.2527 84.3738 25.138 84.3738 23.862C84.3738 22.586 84.6305 21.4713 85.1438 20.518C85.6718 19.5647 86.4051 18.8313 87.3438 18.318C88.2825 17.8047 89.3605 17.548 90.5778 17.548C91.7658 17.548 92.8218 17.7973 93.7458 18.296C94.6698 18.7947 95.3885 19.506 95.9018 20.43C96.4298 21.354 96.6938 22.432 96.6938 23.664ZM92.8438 22.674C92.8438 22.0287 92.6238 21.5153 92.1838 21.134C91.7438 20.7527 91.1938 20.562 90.5338 20.562C89.9031 20.562 89.3678 20.7453 88.9278 21.112C88.5025 21.4787 88.2385 21.9993 88.1358 22.674H92.8438ZM114.342 17.592C115.868 17.592 117.078 18.054 117.972 18.978C118.882 19.902 119.336 21.1853 119.336 22.828V30H115.596V23.334C115.596 22.542 115.384 21.9333 114.958 21.508C114.548 21.068 113.976 20.848 113.242 20.848C112.509 20.848 111.93 21.068 111.504 21.508C111.094 21.9333 110.888 22.542 110.888 23.334V30H107.148V23.334C107.148 22.542 106.936 21.9333 106.51 21.508C106.1 21.068 105.528 20.848 104.794 20.848C104.061 20.848 103.482 21.068 103.056 21.508C102.646 21.9333 102.44 22.542 102.44 23.334V30H98.6785V17.724H102.44V19.264C102.822 18.7507 103.32 18.3473 103.936 18.054C104.552 17.746 105.249 17.592 106.026 17.592C106.95 17.592 107.772 17.79 108.49 18.186C109.224 18.582 109.796 19.1467 110.206 19.88C110.632 19.2053 111.211 18.6553 111.944 18.23C112.678 17.8047 113.477 17.592 114.342 17.592Z" fill="black"/>
<g filter="url(#filter0_d_42_371)">
<circle cx="26.5" cy="22.5" r="22.5" fill="#E3C2BC"/>
</g>
<defs>
<filter id="filter0_d_42_371" x="0" y="0" width="53" height="62" filterUnits="userSpaceOnUse" color-interpolation-filters="sRGB">
<feFlood flood-opacity="0" result="BackgroundImageFix"/>
<feColorMatrix in="SourceAlpha" type="matrix" values="0 0 0 0 0 0 0 0 0 0 0 0 0 0 0 0 0 0 127 0" result="hardAlpha"/>
<feOffset dy="13"/>
<feGaussianBlur stdDeviation="2"/>
<feComposite in2="hardAlpha" operator="out"/>
<feColorMatrix type="matrix" values="0 0 0 0 0 0 0 0 0 0 0 0 0 0 0 0 0 0 0.25 0"/>
<feBlend mode="normal" in2="BackgroundImageFix" result="effect1_dropShadow_42_371"/>
<feBlend mode="normal" in="SourceGraphic" in2="effect1_dropShadow_42_371" result="shape"/>
</filter>
</defs>
</svg>
