<svg width="49" height="14" viewBox="0 0 49 14" fill="none" xmlns="http://www.w3.org/2000/svg">
<path d="M5.14453 5.08203C5.14453 4.625 5.04492 4.29492 4.8457 4.0918C4.65039 3.88867 4.32617 3.78711 3.87305 3.78711H3.05859V6.52344H3.91992C4.33789 6.52344 4.64648 6.41406 4.8457 6.19531C5.04492 5.97656 5.14453 5.60547 5.14453 5.08203ZM5.73633 8.70898C5.73633 8.18945 5.60547 7.80273 5.34375 7.54883C5.08594 7.29492 4.66211 7.16797 4.07227 7.16797H3.05859V10.3555C3.62109 10.3789 4.06445 10.3906 4.38867 10.3906C4.8457 10.3906 5.18359 10.252 5.40234 9.97461C5.625 9.69727 5.73633 9.27539 5.73633 8.70898ZM0.199219 11V10.5723L1.21289 10.4141V3.72266L0.199219 3.57031V3.14258H4.01367C5.05664 3.14258 5.82617 3.2832 6.32227 3.56445C6.81836 3.8418 7.06641 4.29297 7.06641 4.91797C7.06641 5.38672 6.91992 5.79102 6.62695 6.13086C6.33398 6.4707 5.94141 6.69336 5.44922 6.79883C6.17969 6.87305 6.73242 7.07227 7.10742 7.39648C7.48242 7.7168 7.66992 8.1543 7.66992 8.70898C7.66992 9.4707 7.38867 10.0488 6.82617 10.4434C6.26367 10.8379 5.45703 11.0352 4.40625 11.0352L1.73438 11H0.199219ZM33.5742 5.35742C34.3203 5.35742 34.8594 5.55664 35.1914 5.95508C35.5273 6.35352 35.6953 6.97266 35.6953 7.8125V8.29297H32.8066V8.38672C32.8066 8.96875 32.8535 9.38281 32.9473 9.62891C33.041 9.875 33.1934 10.0625 33.4043 10.1914C33.6152 10.3203 33.9043 10.3848 34.2715 10.3848C34.6152 10.3848 35.0488 10.3281 35.5723 10.2148V10.666C35.3574 10.7949 35.0781 10.9023 34.7344 10.9883C34.3945 11.0703 34.0625 11.1113 33.7383 11.1113C32.8359 11.1113 32.168 10.877 31.7344 10.4082C31.3047 9.93555 31.0898 9.20508 31.0898 8.2168C31.0898 7.25586 31.2949 6.53906 31.7051 6.06641C32.1191 5.59375 32.7422 5.35742 33.5742 5.35742ZM33.5098 5.94922C33.2754 5.94922 33.0996 6.07617 32.9824 6.33008C32.8691 6.58398 32.8125 7.0332 32.8125 7.67773H34.0898C34.0898 7.1543 34.0723 6.78711 34.0371 6.57617C34.002 6.36133 33.9414 6.20312 33.8555 6.10156C33.7734 6 33.6582 5.94922 33.5098 5.94922ZM41.0391 10.666C40.8633 10.8066 40.6191 10.916 40.3066 10.9941C39.998 11.0723 39.6797 11.1113 39.3516 11.1113C38.3711 11.1113 37.6367 10.875 37.1484 10.4023C36.6641 9.92969 36.4219 9.20703 36.4219 8.23438C36.4219 7.62891 36.5312 7.11133 36.75 6.68164C36.9727 6.24805 37.2891 5.91797 37.6992 5.69141C38.1094 5.46094 38.5859 5.3457 39.1289 5.3457C39.6758 5.3457 40.2715 5.41406 40.916 5.55078V7.17969H40.4941L40.248 6.21289C40.1152 6.11523 39.9844 6.04688 39.8555 6.00781C39.7266 5.96875 39.5566 5.94922 39.3457 5.94922C39.1152 5.94922 38.9062 6.04102 38.7188 6.22461C38.5312 6.4082 38.3848 6.66797 38.2793 7.00391C38.1777 7.33594 38.127 7.73438 38.127 8.19922C38.127 8.98438 38.248 9.54492 38.4902 9.88086C38.7363 10.2168 39.125 10.3848 39.6562 10.3848C40.1953 10.3848 40.6562 10.3281 41.0391 10.2148V10.666ZM43.8984 5.05859C43.8984 5.31641 43.8867 5.62109 43.8633 5.97266L44.2676 5.76758C44.8223 5.48633 45.3203 5.3457 45.7617 5.3457C46.7773 5.3457 47.2852 5.88672 47.2852 6.96875V10.4727L47.8359 10.6133V11H45.0996V10.6133L45.5918 10.4727V7.19727C45.5918 6.86914 45.5215 6.61328 45.3809 6.42969C45.2441 6.24609 45.0469 6.1543 44.7891 6.1543C44.4922 6.1543 44.1953 6.2207 43.8984 6.35352V10.4727L44.4023 10.6133V11H41.666V10.6133L42.2051 10.4727V3.20117L41.6426 3.06055V2.67383H43.8984V5.05859Z" fill="black"/>
<path d="M10.8984 5.35742C11.6445 5.35742 12.1836 5.55664 12.5156 5.95508C12.8516 6.35352 13.0195 6.97266 13.0195 7.8125V8.29297H10.1309V8.38672C10.1309 8.96875 10.1777 9.38281 10.2715 9.62891C10.3652 9.875 10.5176 10.0625 10.7285 10.1914C10.9395 10.3203 11.2285 10.3848 11.5957 10.3848C11.9395 10.3848 12.373 10.3281 12.8965 10.2148V10.666C12.6816 10.7949 12.4023 10.9023 12.0586 10.9883C11.7188 11.0703 11.3867 11.1113 11.0625 11.1113C10.1602 11.1113 9.49219 10.877 9.05859 10.4082C8.62891 9.93555 8.41406 9.20508 8.41406 8.2168C8.41406 7.25586 8.61914 6.53906 9.0293 6.06641C9.44336 5.59375 10.0664 5.35742 10.8984 5.35742ZM10.834 5.94922C10.5996 5.94922 10.4238 6.07617 10.3066 6.33008C10.1934 6.58398 10.1367 7.0332 10.1367 7.67773H11.4141C11.4141 7.1543 11.3965 6.78711 11.3613 6.57617C11.3262 6.36133 11.2656 6.20312 11.1797 6.10156C11.0977 6 10.9824 5.94922 10.834 5.94922ZM15.8613 10.4727L16.4648 10.6133V11H13.5703V10.6133L14.168 10.4727V3.20117L13.6055 3.06055V2.67383H15.8613V10.4727ZM16.582 12.6699V11.8262H22.7695V12.6699H16.582ZM24.4922 11V10.5723L25.7402 10.4141V3.76367H25.4414C24.5469 3.76367 23.918 3.80273 23.5547 3.88086L23.3965 5.33984H22.8633V3.14258H30.498V5.33984H29.959L29.8008 3.88086C29.4766 3.81055 28.8359 3.77539 27.8789 3.77539H27.5918V10.4141L28.8398 10.5723V11H24.4922Z" fill="#8B5DEC"/>
</svg>
