<svg width="17" height="17" viewBox="0 0 17 17" fill="none" xmlns="http://www.w3.org/2000/svg">
<g clip-path="url(#clip0_2111_22)">
<rect width="17" height="17" rx="8.5" fill="white"/>
<path d="M8.5 0.232422C3.93347 0.232422 0.232422 3.93351 0.232422 8.50007C0.232422 13.0665 3.93347 16.7676 8.5 16.7676C13.0665 16.7676 16.7676 13.0665 16.7676 8.50007C16.7676 3.93351 13.0665 0.232422 8.5 0.232422ZM8.5 16.1062C4.30611 16.1062 0.893828 12.6939 0.893828 8.50007C0.893828 4.30618 4.30611 0.893828 8.5 0.893828C12.6939 0.893828 16.1062 4.30615 16.1062 8.50007C16.1062 12.6939 12.6939 16.1062 8.5 16.1062Z" fill="black"/>
<path d="M12.2368 5.21532L11.7692 4.74765L8.49545 8.02145L5.23723 4.76319L4.76956 5.23082L8.02785 8.48911L4.76956 11.7476L5.23723 12.2152L8.49545 8.95654L11.7692 12.2307L12.2368 11.763L8.96308 8.48911L12.2368 5.21532Z" fill="black"/>
</g>
<defs>
<clipPath id="clip0_2111_22">
<rect width="17" height="17" rx="8.5" fill="white"/>
</clipPath>
</defs>
</svg>
